<svg width="10" height="9" viewBox="0 0 10 9" fill="none" xmlns="http://www.w3.org/2000/svg">
<path d="M2.81177 7.41732L0.259798 4.66693C0.0905012 4.48553 6.68648e-05 4.24438 0.00833321 3.99639C0.0165995 3.7484 0.122892 3.51382 0.303893 3.34409C0.486006 3.17549 0.727568 3.08603 0.975569 3.09533C1.22357 3.10463 1.45775 3.21193 1.62673 3.3937L3.59996 5.50472L6.72515 2.58346C6.75307 2.55782 6.78252 2.53389 6.81334 2.51181L8.27948 1.13937C8.46088 0.970071 8.70203 0.879637 8.95002 0.887903C9.19801 0.89617 9.4326 1.00246 9.60232 1.18346C9.77162 1.36486 9.86205 1.60601 9.85378 1.854C9.84552 2.10199 9.73922 2.33657 9.55822 2.5063L5.0661 6.69527L3.50626 8.14488L2.81728 7.4063L2.81177 7.41732Z" fill="white"/>
</svg>
