<svg width="28" height="30" viewBox="0 0 28 30" fill="none" xmlns="http://www.w3.org/2000/svg">
<path d="M26.3847 5.88009L15.2922 0.306518C14.891 0.105201 14.4483 0.000366211 13.9995 0.000366211C13.5506 0.000366211 13.108 0.105201 12.7068 0.306518L1.61537 5.88009C1.12779 6.12517 0.719879 6.50374 0.439141 6.9717C0.158403 7.43966 0.0163957 7.97775 0.0296597 8.5233C0.130374 13.124 1.44716 24.9976 12.0211 29.5897C12.6461 29.8606 13.3199 30.0004 14.0011 30.0004C14.6822 30.0004 15.3561 29.8606 15.9811 29.5897C26.5539 24.9976 27.8707 13.124 27.9725 8.5233C27.9961 7.40795 27.3811 6.38045 26.3847 5.88009ZM14.96 19.7315V20.3572C14.96 20.613 14.8584 20.8582 14.6776 21.0391C14.4967 21.2199 14.2515 21.3215 13.9957 21.3215C13.74 21.3215 13.4947 21.2199 13.3139 21.0391C13.133 20.8582 13.0314 20.613 13.0314 20.3572V19.9994L12.9597 20.0004C12.4218 20.0004 11.8968 19.7904 11.51 19.4165C11.3091 19.2241 11.1493 18.9929 11.0405 18.7369C10.9316 18.4809 10.8759 18.2054 10.8768 17.9272C10.8767 17.6715 10.9781 17.4262 11.1589 17.2452C11.3396 17.0643 11.5848 16.9626 11.8406 16.9624C12.0963 16.9623 12.3416 17.0637 12.5226 17.2445C12.7035 17.4252 12.8052 17.6704 12.8054 17.9262C12.8054 17.9658 12.8204 18.0001 12.8482 18.029C12.8707 18.0504 12.9125 18.0751 12.9618 18.0719C13.5725 18.0494 15.5718 17.9047 15.5975 16.9319C15.6072 16.5719 14.9268 16.2022 13.7782 15.9419C11.4875 15.4201 10.3775 14.4054 10.4782 12.9279C10.5339 12.1051 10.9786 10.829 13.0304 10.2719V9.64295C13.0304 9.3872 13.132 9.14193 13.3128 8.96109C13.4936 8.78025 13.7389 8.67866 13.9947 8.67866C14.2504 8.67866 14.4957 8.78025 14.6765 8.96109C14.8573 9.14193 14.9589 9.3872 14.9589 9.64295V10.0029H14.9675C15.5472 9.96652 16.0647 10.1894 16.4718 10.5804C16.8747 10.9694 17.1061 11.5147 17.1061 12.0751C17.1061 12.3308 17.0045 12.5761 16.8237 12.7569C16.6428 12.9378 16.3975 13.0394 16.1418 13.0394C15.8861 13.0394 15.6408 12.9378 15.4599 12.7569C15.2791 12.5761 15.1775 12.3308 15.1775 12.0751C15.1779 12.0551 15.1741 12.0352 15.1663 12.0168C15.1586 11.9983 15.1471 11.9817 15.1325 11.9679H15.0929C14.0386 11.9679 12.4625 12.1662 12.4014 13.0587C12.3768 13.439 13.0004 13.7872 14.2068 14.0615C16.4461 14.5704 17.5636 15.5529 17.5261 16.9833C17.5079 17.6776 17.1875 19.1262 14.96 19.7315Z" fill="white"/>
</svg>
