<svg width="20" height="30" viewBox="0 0 20 30" fill="none" xmlns="http://www.w3.org/2000/svg">
<path d="M15.4282 25.7144H2.57109L0.642517 28.2858C0.52313 28.445 0.45043 28.6342 0.43256 28.8324C0.414691 29.0306 0.45236 29.2298 0.541345 29.4078C0.63033 29.5858 0.767116 29.7354 0.936376 29.84C1.10564 29.9447 1.30068 30.0001 1.49966 30.0001H16.4997C16.6986 30.0001 16.8937 29.9447 17.0629 29.84C17.2322 29.7354 17.369 29.5858 17.458 29.4078C17.547 29.2298 17.5846 29.0306 17.5668 28.8324C17.5489 28.6342 17.4762 28.445 17.3568 28.2858L15.4282 25.7144ZM19.4 9.95685L12.9714 3.52828C12.7706 3.32733 12.4981 3.21441 12.2139 3.21435H9.4143L10.0164 1.41007C10.0828 1.21059 10.089 0.995996 10.0343 0.793009C9.97964 0.590023 9.86643 0.407614 9.70881 0.2685C9.5512 0.129386 9.35614 0.0397143 9.14793 0.0106533C8.93972 -0.0184077 8.72756 0.0144262 8.53787 0.105065L4.76216 1.90721C4.71615 1.92902 4.67175 1.95408 4.6293 1.98221C3.33546 2.8428 2.27473 4.01023 1.5417 5.38038C0.808672 6.75053 0.426144 8.2808 0.428231 9.83471V21.4286C0.428292 21.7128 0.541214 21.9853 0.74216 22.1861L2.12752 23.5715H4.71395V12.8572C4.71395 12.573 4.82683 12.3005 5.02776 12.0996C5.22869 11.8987 5.50121 11.7858 5.78537 11.7858C6.06953 11.7858 6.34206 11.8987 6.54299 12.0996C6.74392 12.3005 6.8568 12.573 6.8568 12.8572V23.5715H15.8718L17.2572 22.1861C17.4162 22.0272 17.5213 21.8223 17.5574 21.6004C17.5936 21.3785 17.559 21.1509 17.4586 20.9497L13.8114 13.6576C14.8454 13.8183 15.7325 14.6765 15.7422 14.6861C15.8534 14.7995 15.9889 14.8862 16.1385 14.9397C16.2881 14.9931 16.4478 15.0119 16.6057 14.9947C16.7634 14.9791 16.9156 14.9288 17.0514 14.8472C17.1872 14.7657 17.3032 14.6551 17.3911 14.5233L19.5339 11.309C19.6714 11.1029 19.7332 10.8555 19.7087 10.609C19.6843 10.3624 19.5752 10.132 19.4 9.95685Z" fill="white"/>
</svg>
