<svg width="30" height="30" viewBox="0 0 30 30" fill="none" xmlns="http://www.w3.org/2000/svg">
<path d="M14.7434 21.8043L8.31485 14.3043C7.9077 13.8286 7.09342 13.8286 6.68627 14.3043L0.257702 21.8043C0.12457 21.9599 0.0388408 22.1505 0.0106709 22.3534C-0.017499 22.5562 0.0130709 22.7629 0.098759 22.949C0.184447 23.135 0.321662 23.2926 0.49415 23.403C0.666638 23.5135 0.867169 23.5722 1.07199 23.5722H3.21485V28.9293C3.21485 29.2135 3.32773 29.486 3.52866 29.6869C3.72959 29.8878 4.00211 30.0007 4.28627 30.0007H10.7148C10.999 30.0007 11.2715 29.8878 11.4725 29.6869C11.6734 29.486 11.7863 29.2135 11.7863 28.9293V23.5722H13.9291C14.1338 23.5717 14.334 23.5128 14.5062 23.4022C14.6784 23.2917 14.8154 23.1342 14.901 22.9483C14.9866 22.7625 15.0173 22.556 14.9893 22.3533C14.9614 22.1506 14.8761 21.9601 14.7434 21.8043Z" fill="white"/>
<path d="M29.7661 11.1169L21.1947 0.40257C20.7876 -0.106358 19.9294 -0.106358 19.5211 0.40257L10.9497 11.1169C10.824 11.2746 10.7453 11.4646 10.7226 11.665C10.7 11.8654 10.7343 12.0682 10.8217 12.25C10.909 12.4318 11.0459 12.5853 11.2166 12.6928C11.3873 12.8004 11.5848 12.8576 11.7865 12.8579H13.9294V17.5615L16.369 20.4094C17.1844 21.3586 17.3729 22.7065 16.8501 23.8444C16.592 24.402 16.18 24.8744 15.6626 25.2058C15.1452 25.5372 14.5438 25.7139 13.9294 25.7151V28.9294C13.9294 29.2135 14.0422 29.486 14.2432 29.687C14.4441 29.8879 14.7166 30.0008 15.0008 30.0008H25.7151C25.9992 30.0008 26.2718 29.8879 26.4727 29.687C26.6736 29.486 26.7865 29.2135 26.7865 28.9294V12.8579H28.9294C29.1311 12.8576 29.3286 12.8004 29.4993 12.6928C29.6699 12.5853 29.8068 12.4318 29.8942 12.25C29.9816 12.0682 30.0159 11.8654 29.9932 11.665C29.9706 11.4646 29.8919 11.2746 29.7661 11.1169ZM21.4294 21.2922V21.4294C21.4294 21.7135 21.3165 21.986 21.1155 22.187C20.9146 22.3879 20.6421 22.5008 20.3579 22.5008C20.0738 22.5008 19.8012 22.3879 19.6003 22.187C19.3994 21.986 19.2865 21.7135 19.2865 21.4294H19.0186C18.7345 21.4294 18.462 21.3165 18.261 21.1155C18.0601 20.9146 17.9472 20.6421 17.9472 20.3579C17.9472 20.0738 18.0601 19.8012 18.261 19.6003C18.462 19.3994 18.7345 19.2865 19.0186 19.2865H20.6258C20.762 19.2779 20.8898 19.2177 20.9833 19.1182C21.0767 19.0187 21.1287 18.8873 21.1287 18.7508C21.1287 18.6143 21.0767 18.4829 20.9833 18.3834C20.8898 18.2839 20.762 18.2237 20.6258 18.2151H20.0901C19.3798 18.2145 18.6989 17.9321 18.1967 17.4299C17.6945 16.9277 17.4121 16.2467 17.4115 15.5365C17.4115 14.3408 18.2044 13.3379 19.2865 12.9951V12.8579C19.2865 12.5738 19.3994 12.3012 19.6003 12.1003C19.8012 11.8994 20.0738 11.7865 20.3579 11.7865C20.6421 11.7865 20.9146 11.8994 21.1155 12.1003C21.3165 12.3012 21.4294 12.5738 21.4294 12.8579C21.7135 12.8579 21.986 12.9708 22.187 13.1717C22.3879 13.3727 22.5008 13.6452 22.5008 13.9294C22.5008 14.2135 22.3879 14.486 22.187 14.687C21.986 14.8879 21.7135 15.0008 21.4294 15.0008H20.0901C19.9538 15.0094 19.826 15.0696 19.7326 15.1691C19.6392 15.2686 19.5872 15.4 19.5872 15.5365C19.5872 15.673 19.6392 15.8044 19.7326 15.9039C19.826 16.0034 19.9538 16.0636 20.0901 16.0722H20.6258C22.1033 16.0722 23.3044 17.2733 23.3044 18.7508C23.3044 19.9465 22.5115 20.9494 21.4294 21.2922Z" fill="white"/>
</svg>
