<svg width="22" height="31" viewBox="0 0 22 31" fill="none" xmlns="http://www.w3.org/2000/svg">
<path d="M18.2899 12.7364V7.32674C18.2924 6.36872 18.105 5.4197 17.7384 4.53457C17.3719 3.64943 16.8336 2.84573 16.1545 2.16995C15.4785 1.49132 14.6747 0.953318 13.7896 0.586997C12.9045 0.220676 11.9556 0.0332938 10.9977 0.0356668C9.0647 0.0379353 7.2115 0.806828 5.84465 2.17368C4.4778 3.54053 3.70891 5.39372 3.70664 7.32674V12.7396C2.66416 13.7262 1.83392 14.9151 1.26669 16.2336C0.699463 17.5521 0.407179 18.9725 0.407716 20.4078C0.407716 26.2578 5.14986 31 10.9999 31C16.8499 31 21.592 26.2578 21.592 20.4078C21.5924 18.9717 21.2997 17.5507 20.7319 16.2316C20.1641 14.9125 19.3332 13.7232 18.2899 12.7364ZM11.9641 21.3549V23.3575C11.9641 23.6132 11.8625 23.8585 11.6817 24.0393C11.5009 24.2201 11.2556 24.3217 10.9999 24.3217C10.7441 24.3217 10.4988 24.2201 10.318 24.0393C10.1372 23.8585 10.0356 23.6132 10.0356 23.3575V21.3549C9.62489 21.141 9.29805 20.7952 9.10756 20.3732C8.91708 19.9511 8.874 19.4773 8.98526 19.0278C9.09652 18.5783 9.35566 18.1792 9.72103 17.8948C10.0864 17.6103 10.5368 17.4569 10.9999 17.4592C11.4629 17.4569 11.9133 17.6103 12.2787 17.8948C12.6441 18.1792 12.9032 18.5783 13.0145 19.0278C13.1257 19.4773 13.0826 19.9511 12.8922 20.3732C12.7017 20.7952 12.3748 21.141 11.9641 21.3549ZM16.3602 11.2835C14.7364 10.3227 12.8842 9.81595 10.9974 9.81633C9.11064 9.81671 7.25864 10.3242 5.63522 11.2857V7.32674C5.63692 5.90504 6.20244 4.54205 7.20773 3.53676C8.21303 2.53146 9.57601 1.96594 10.9977 1.96424C12.4302 1.96424 13.7781 2.52245 14.7906 3.53388C15.2899 4.03094 15.6858 4.62209 15.9552 5.27312C16.2246 5.92416 16.3623 6.62216 16.3602 7.32674V11.2835Z" fill="white"/>
</svg>
