<svg width="22" height="22" viewBox="0 0 22 22" fill="none" xmlns="http://www.w3.org/2000/svg">
<path d="M10.167 16.0613C9.9194 15.6504 10.5304 15.2752 10.7867 15.6784L11.2826 16.4805L12.5984 15.4087L11.7853 10.8885L9.54716 13.3203L7.6444 13.5351C7.53867 13.546 7.44024 13.608 7.3819 13.6955L6.30274 15.3325L7.19597 17.1911C7.22878 17.2604 7.23972 17.3406 7.22513 17.4171L6.9444 18.9557C6.84961 19.4245 6.14633 19.3017 6.22617 18.8244L6.48867 17.4026L5.74857 15.875L3.02222 16.9286C2.94201 16.9614 2.87638 17.0161 2.83628 17.0927L0.842373 20.6652C0.701644 20.8945 0.889769 21.2165 1.15956 21.2084H9.09143L10.7831 17.0599L10.167 16.0613Z" fill="white"/>
<path d="M14.5486 12.4595C14.5273 12.3992 14.4878 12.347 14.4356 12.31L12.5106 10.801L13.3528 15.4924C13.3783 15.6201 13.3273 15.755 13.2252 15.8388L11.4938 17.2497L9.87903 21.2084H15.2778C15.3908 21.2084 15.4965 21.1573 15.5658 21.0698C15.6351 20.9823 15.6606 20.8693 15.6351 20.76L15.0918 18.485L16.0215 16.331C16.0616 16.2398 16.0616 16.1378 16.0252 16.0466L14.5486 12.4595ZM6.88252 11.8036C7.04294 11.8576 7.22013 11.7861 7.30909 11.6395C8.29983 9.92589 9.47189 8.3237 10.8051 6.86057L11.2499 7.30172C11.516 7.57589 11.9561 7.56896 12.2229 7.30172L12.4709 7.0538C12.6254 6.89703 12.9864 6.53974 13.138 6.38662C13.3976 6.12594 13.4057 5.68151 13.1344 5.41683L12.6933 4.97203C14.1564 3.63897 15.7586 2.46704 17.4722 1.47641C17.8003 1.29776 17.6363 0.745054 17.2571 0.794637C14.5162 1.02824 11.9461 2.22319 10.001 4.16832C8.05587 6.11344 6.86092 8.68354 6.62732 11.4244C6.61273 11.5958 6.71846 11.7526 6.88252 11.8036ZM20.8001 13.1157L17.9651 10.4346L13.8927 6.58349C13.8308 6.70016 13.7469 6.80953 13.6521 6.90433C13.4279 7.10703 12.6801 7.93099 12.4198 8.06005L14.4028 10.1593L18.9484 14.9675C19.1927 15.2263 19.5245 15.3685 19.8781 15.3758C21.0455 15.4232 21.6656 13.9 20.8001 13.1157Z" fill="white"/>
</svg>
