<svg width="30" height="28" viewBox="0 0 30 28" fill="none" xmlns="http://www.w3.org/2000/svg">
<path d="M24.6429 0.523682H5.35714C3.93634 0.523682 2.57373 1.08809 1.56907 2.09275C0.564412 3.09741 0 4.46002 0 5.88082V17.1083C0 18.5291 0.564412 19.8917 1.56907 20.8964C2.57373 21.9011 3.93634 22.4655 5.35714 22.4655H10.6736L13.7668 26.838C13.9063 27.0352 14.0912 27.1961 14.3057 27.3071C14.5203 27.4181 14.7584 27.4761 15 27.4761C15.2416 27.4761 15.4797 27.4181 15.6943 27.3071C15.9088 27.1961 16.0937 27.0352 16.2332 26.838L19.3264 22.4655H24.6429C26.0637 22.4655 27.4263 21.9011 28.4309 20.8964C29.4356 19.8917 30 18.5291 30 17.1083V5.88082C30 4.46002 29.4356 3.09741 28.4309 2.09275C27.4263 1.08809 26.0637 0.523682 24.6429 0.523682ZM7.95429 13.3251C7.4688 13.3251 7.00319 13.1322 6.6599 12.789C6.31661 12.4457 6.12375 11.9801 6.12375 11.4946C6.12375 11.0091 6.31661 10.5435 6.6599 10.2002C7.00319 9.8569 7.4688 9.66404 7.95429 9.66404C8.43977 9.66404 8.90538 9.8569 9.24867 10.2002C9.59196 10.5435 9.78482 11.0091 9.78482 11.4946C9.78482 11.9801 9.59196 12.4457 9.24867 12.789C8.90538 13.1322 8.43977 13.3251 7.95429 13.3251ZM15 13.3251C14.5145 13.3251 14.0489 13.1322 13.7056 12.789C13.3623 12.4457 13.1695 11.9801 13.1695 11.4946C13.1695 11.0091 13.3623 10.5435 13.7056 10.2002C14.0489 9.8569 14.5145 9.66404 15 9.66404C15.4855 9.66404 15.9511 9.8569 16.2944 10.2002C16.6377 10.5435 16.8305 11.0091 16.8305 11.4946C16.8305 11.9801 16.6377 12.4457 16.2944 12.789C15.9511 13.1322 15.4855 13.3251 15 13.3251ZM22.0457 13.3251C21.5602 13.3251 21.0946 13.1322 20.7513 12.789C20.408 12.4457 20.2152 11.9801 20.2152 11.4946C20.2152 11.0091 20.408 10.5435 20.7513 10.2002C21.0946 9.8569 21.5602 9.66404 22.0457 9.66404C22.5312 9.66404 22.9968 9.8569 23.3401 10.2002C23.6834 10.5435 23.8762 11.0091 23.8762 11.4946C23.8762 11.9801 23.6834 12.4457 23.3401 12.789C22.9968 13.1322 22.5312 13.3251 22.0457 13.3251Z" fill="white"/>
</svg>
