<svg width="20" height="30" viewBox="0 0 20 30" fill="none" xmlns="http://www.w3.org/2000/svg">
<path d="M16.4819 -4.17884e-05H3.57122C2.71874 -4.17884e-05 1.90117 0.338605 1.29838 0.941401C0.695581 1.5442 0.356934 2.36176 0.356934 3.21424V26.7857C0.356934 27.6382 0.695581 28.4557 1.29838 29.0585C1.90117 29.6613 2.71874 30 3.57122 30H16.5355C17.388 30 18.2056 29.6613 18.8083 29.0585C19.4111 28.4557 19.7498 27.6382 19.7498 26.7857V3.21424C19.7498 2.78759 19.665 2.3652 19.5001 1.97169C19.3352 1.57818 19.0937 1.22143 18.7895 0.922249C18.4853 0.623064 18.1246 0.387428 17.7284 0.229082C17.3323 0.0707359 16.9085 -0.00715266 16.4819 -4.17884e-05ZM9.99979 27.5357C9.70524 27.5357 9.4173 27.4483 9.17239 27.2847C8.92748 27.121 8.73659 26.8884 8.62387 26.6163C8.51115 26.3442 8.48166 26.0447 8.53912 25.7558C8.59659 25.4669 8.73843 25.2016 8.94671 24.9933C9.15499 24.785 9.42035 24.6432 9.70925 24.5857C9.99814 24.5283 10.2976 24.5577 10.5697 24.6705C10.8418 24.7832 11.0744 24.9741 11.2381 25.219C11.4017 25.4639 11.4891 25.7518 11.4891 26.0464C11.4891 26.4414 11.3322 26.8202 11.0529 27.0995C10.7736 27.3788 10.3948 27.5357 9.99979 27.5357ZM12.3676 3.4821H7.63193C7.41881 3.4821 7.21442 3.39744 7.06372 3.24674C6.91302 3.09604 6.82836 2.89165 6.82836 2.67853C6.82836 2.46541 6.91302 2.26102 7.06372 2.11032C7.21442 1.95962 7.41881 1.87496 7.63193 1.87496H12.3676C12.5808 1.87496 12.7852 1.95962 12.9359 2.11032C13.0866 2.26102 13.1712 2.46541 13.1712 2.67853C13.1712 2.89165 13.0866 3.09604 12.9359 3.24674C12.7852 3.39744 12.5808 3.4821 12.3676 3.4821Z" fill="white"/>
</svg>
