<svg width="30" height="29" viewBox="0 0 30 29" fill="none" xmlns="http://www.w3.org/2000/svg">
<path d="M16.2214 13.0464C16.2214 13.6785 15.1714 14.6428 12.8464 15.2428C11.5714 15.5964 10.0714 15.7785 8.50714 15.7785C6.95357 15.7785 5.45357 15.5964 4.18929 15.2535C1.84286 14.6428 0.803571 13.6999 0.803571 13.0464C0.803571 11.9321 3.80357 10.3142 8.50714 10.3142C13.2214 10.3142 16.2214 11.9321 16.2214 13.0464ZM29.1964 3.01779C29.1964 3.66064 28.1357 4.62493 25.8 5.21422C24.5143 5.55707 23.0143 5.7285 21.4821 5.7285C19.95 5.7285 18.4607 5.55707 17.175 5.21422C14.8393 4.62493 13.7786 3.66064 13.7786 3.01779C13.7786 1.9035 16.7786 0.285645 21.4821 0.285645C26.2607 0.285645 29.1964 1.87136 29.1964 3.01779ZM13.4614 23.5603C11.9775 23.9503 10.2654 24.1571 8.50821 24.1571C6.75857 24.1571 5.05071 23.9514 3.56786 23.5614C2.06464 23.1639 0.871071 22.596 0 21.9103V24.9874C0 26.9374 3.81107 28.5221 8.50929 28.5221C13.2182 28.5221 17.0293 26.9374 17.0293 24.9874V21.9103C16.1582 22.596 14.9646 23.1639 13.4614 23.5603Z" fill="white"/>
<path d="M13.2482 16.7995C11.8736 17.1798 10.2246 17.3856 8.50714 17.3856C6.80786 17.3856 5.16964 17.1841 3.76821 16.8048C2.04107 16.3548 0.761786 15.6831 0 14.872V19.0152C0 20.2784 1.58464 21.3756 3.97714 22.0066C5.28429 22.3506 6.84643 22.5498 8.50821 22.5498C10.1807 22.5498 11.7429 22.3506 13.0511 22.0066C15.4446 21.3756 17.0282 20.2666 17.0282 19.0152V14.8484C16.26 15.6702 14.9679 16.3559 13.2482 16.7995ZM26.1932 6.77198C24.8196 7.13841 23.1825 7.33555 21.4821 7.33555C19.7882 7.33555 18.1554 7.13841 16.7614 6.76662C15.0407 6.3327 13.7432 5.6502 12.9718 4.8252V8.98448C12.9718 9.06162 12.9954 9.13555 13.0071 9.21055C15.3804 9.79234 17.0796 10.8359 17.6325 12.1216C18.7896 12.3734 20.0957 12.5181 21.48 12.5181C23.1525 12.5181 24.7039 12.3188 26.0229 11.9641C28.4154 11.3448 30 10.2477 30 8.98448V4.82841C29.2264 5.65234 27.9246 6.33591 26.1932 6.77198ZM26.4257 13.5209C24.9557 13.9152 23.2414 14.1263 21.48 14.1263C20.4996 14.1263 19.5525 14.0406 18.6364 13.9141V18.2802C19.5289 18.412 20.4814 18.4913 21.48 18.4913C23.1525 18.4913 24.7039 18.292 26.0229 17.9481C28.4154 17.317 30 16.2198 30 14.9566V11.8816C29.1279 12.5663 27.9321 13.1309 26.4257 13.5209ZM26.4321 19.5016C24.9343 19.8927 23.2232 20.0984 21.4789 20.0984C20.505 20.0984 19.5514 20.0234 18.6354 19.8991V24.2598C19.5246 24.3906 20.4804 24.4634 21.4789 24.4634C26.1879 24.4634 29.9989 22.8906 29.9989 20.9288V17.8516C29.1289 18.5373 27.9364 19.1052 26.4321 19.5016Z" fill="white"/>
</svg>
