<svg width="30" height="30" viewBox="0 0 30 30" fill="none" xmlns="http://www.w3.org/2000/svg">
<path d="M28.9283 0H24.8891C21.6855 0 18.6855 1.41429 16.6498 3.88929L4.53191 18.6C4.17834 19.0286 4.21048 19.65 4.5962 20.0464L6.51405 21.9643L9.41763 19.0607C9.83548 18.6429 10.5212 18.6429 10.9391 19.0607C11.3569 19.4786 11.3569 20.1643 10.9391 20.5821L8.03548 23.4857L9.95334 25.4036C10.1676 25.6071 10.4355 25.7143 10.7141 25.7143C10.9605 25.7143 11.1962 25.6286 11.3998 25.4679L26.1105 13.35C28.5855 11.3143 29.9998 8.31429 29.9998 5.11071V1.07143C29.9998 0.482143 29.5176 0 28.9283 0ZM17.1426 15C15.9641 15 14.9998 14.0357 14.9998 12.8571C14.9998 11.6786 15.9641 10.7143 17.1426 10.7143C18.3212 10.7143 19.2855 11.6786 19.2855 12.8571C19.2855 14.0357 18.3212 15 17.1426 15ZM22.4998 10.7143C20.7319 10.7143 19.2855 9.26786 19.2855 7.5C19.2855 5.73214 20.7319 4.28571 22.4998 4.28571C24.2676 4.28571 25.7141 5.73214 25.7141 7.5C25.7141 9.26786 24.2676 10.7143 22.4998 10.7143Z" fill="white"/>
<path d="M22.4997 8.57132C23.0914 8.57132 23.5711 8.09163 23.5711 7.4999C23.5711 6.90816 23.0914 6.42847 22.4997 6.42847C21.9079 6.42847 21.4282 6.90816 21.4282 7.4999C21.4282 8.09163 21.9079 8.57132 22.4997 8.57132Z" fill="white"/>
<path d="M6.42841 25.0928L4.51055 27.0106C4.29627 27.2142 4.02841 27.3214 3.74984 27.3214C3.47127 27.3214 3.20341 27.2142 2.98913 27.0106C2.57127 26.5928 2.57127 25.9071 2.98913 25.4892L4.90698 23.5714L6.42841 25.0928ZM2.87555 17.2424L7.36912 11.7856H4.28555C4.08645 11.7856 3.89126 11.8409 3.72187 11.9456C3.55249 12.0503 3.41563 12.2 3.32663 12.3781L0.11234 18.8067C0.0310072 18.9701 -0.00726812 19.1516 0.00113794 19.334C0.00954399 19.5163 0.0643533 19.6935 0.160376 19.8487C0.256399 20.004 0.390457 20.1322 0.549858 20.2211C0.709259 20.3101 0.888726 20.3569 1.07127 20.3571H2.33663C2.14819 19.8358 2.09879 19.2745 2.19329 18.7283C2.2878 18.1822 2.52294 17.6701 2.87555 17.2424ZM12.7573 27.1242C12.1815 27.5974 11.4594 27.8564 10.7141 27.8571C10.3485 27.8537 9.98609 27.7877 9.6427 27.6621V28.9285C9.64261 29.1112 9.68922 29.2908 9.7781 29.4504C9.86698 29.6099 9.99518 29.7441 10.1505 29.8402C10.3059 29.9363 10.4832 29.9911 10.6656 29.9993C10.8481 30.0076 11.0297 29.9691 11.1931 29.8874L17.6216 26.6731C17.7997 26.5841 17.9495 26.4473 18.0542 26.2779C18.1588 26.1085 18.2142 25.9133 18.2141 25.7142V22.6306L12.7573 27.1242Z" fill="white"/>
</svg>
