<svg width="24" height="18" viewBox="0 0 24 18" fill="none" xmlns="http://www.w3.org/2000/svg">
<path d="M10.5681 10.7824H9.58003V9.79424C9.58003 9.41668 9.27394 9.11058 8.89637 9.11058C8.51881 9.11058 8.21271 9.41668 8.21271 9.79424V10.7824H7.2246C6.84704 10.7824 6.54094 11.0885 6.54094 11.4661V14.8095C6.54094 15.187 6.84704 15.4931 7.2246 15.4931H8.21271V16.537C8.21271 16.9146 8.51881 17.2207 8.89637 17.2207C9.27394 17.2207 9.58003 16.9146 9.58003 16.537V15.4931H10.5681C10.9457 15.4931 11.2518 15.187 11.2518 14.8095V11.4661C11.2518 11.0885 10.9457 10.7824 10.5681 10.7824ZM16.7756 7.43876H15.7876V6.4506C15.7876 6.07304 15.4815 5.76694 15.1039 5.76694C14.7263 5.76694 14.4202 6.07304 14.4202 6.4506V7.43876H13.4321C13.0546 7.43876 12.7485 7.74486 12.7485 8.12242V11.4658C12.7485 11.8434 13.0546 12.1494 13.4321 12.1494H14.4202V16.5371C14.4202 16.9146 14.7263 17.2207 15.1039 17.2207C15.4815 17.2207 15.7876 16.9146 15.7876 16.5371V12.1494H16.7756C17.1532 12.1494 17.4593 11.8434 17.4593 11.4658V8.12242C17.4593 7.74486 17.1532 7.43876 16.7756 7.43876ZM22.9832 2.45128H21.9951V1.46308C21.9951 1.08552 21.689 0.779419 21.3114 0.779419C20.9338 0.779419 20.6277 1.08552 20.6277 1.46308V2.45124H19.6397C19.2621 2.45124 18.956 2.75734 18.956 3.1349V8.12238C18.956 8.49994 19.2621 8.80603 19.6397 8.80603H20.6277V11.5214C20.6277 11.899 20.9338 12.2051 21.3114 12.2051C21.689 12.2051 21.9951 11.899 21.9951 11.5214V8.80603H22.9832C23.3607 8.80603 23.6668 8.49994 23.6668 8.12238V3.13494C23.6668 2.75738 23.3607 2.45128 22.9832 2.45128ZM4.36061 5.71138H3.37259V1.46312C3.37259 1.08556 3.06649 0.779464 2.68893 0.779464C2.31137 0.779464 2.00527 1.08556 2.00527 1.46312V5.71138H1.01716C0.639593 5.71138 0.333496 6.01748 0.333496 6.39504V11.5215C0.333496 11.899 0.639593 12.2051 1.01716 12.2051H2.00527V13.1933C2.00527 13.5709 2.31137 13.877 2.68893 13.877C3.06649 13.877 3.37259 13.5709 3.37259 13.1933V12.2051H4.36066C4.73822 12.2051 5.04432 11.899 5.04432 11.5215V6.39504C5.04427 6.01748 4.73822 5.71138 4.36061 5.71138Z" fill="white"/>
</svg>
