<svg width="300" height="296" viewBox="0 0 300 296" fill="none" xmlns="http://www.w3.org/2000/svg">
<g clip-path="url(#clip0_70_2770)">
<path opacity="0.8" d="M149.17 295.813C231.451 295.813 298.153 269.047 298.153 236.029C298.153 203.012 231.451 176.246 149.17 176.246C66.8889 176.246 0.187012 203.012 0.187012 236.029C0.187012 269.047 66.8889 295.813 149.17 295.813Z" stroke="#CADBFD" stroke-miterlimit="10"/>
<path opacity="0.5" d="M43.9668 46.3091V224.308C43.9668 224.308 51.668 265.57 146.697 264.778C243.701 263.974 257.952 224.308 257.952 224.308V46.3091H43.9668Z" fill="url(#paint0_linear_70_2770)"/>
<path opacity="0.1" d="M269.087 234.228C269.087 208.062 216.199 186.824 150.958 186.824C85.7159 186.824 32.832 208.047 32.832 234.228V242.963C32.832 269.128 85.7196 290.367 150.958 290.367C216.196 290.367 269.087 269.128 269.087 242.963V234.228Z" fill="#1111FF"/>
<path d="M266.708 227.301C256.501 205.289 208.397 188.625 150.587 188.625C92.7775 188.625 44.6738 205.289 34.4665 227.301H32.458V236.029C32.458 262.195 85.3456 283.43 150.587 283.43C215.829 283.43 268.713 262.206 268.713 236.029V227.301H266.708Z" fill="url(#paint1_linear_70_2770)"/>
<path d="M150.587 274.705C215.826 274.705 268.713 253.482 268.713 227.301C268.713 201.121 215.826 179.897 150.587 179.897C85.3485 179.897 32.4619 201.121 32.4619 227.301C32.4619 253.482 85.3485 274.705 150.587 274.705Z" fill="url(#paint2_linear_70_2770)"/>
<g opacity="0.3">
<path d="M150.587 267.072C120.37 267.072 92.1266 261.877 71.0576 252.438C53.8785 244.746 43.2075 234.684 43.2075 226.176C43.2075 217.669 53.8785 207.61 71.0576 199.914C92.1266 190.475 120.37 185.28 150.587 185.28C180.805 185.28 209.048 190.475 230.117 199.914C247.292 207.61 257.963 217.672 257.963 226.176C257.963 234.68 247.292 244.746 230.117 252.438C209.044 261.877 180.801 267.072 150.587 267.072ZM150.587 185.665C120.422 185.665 92.2389 190.849 71.2147 200.265C54.1778 207.898 43.5928 217.833 43.5928 226.176C43.5928 234.519 54.1778 244.458 71.2147 252.087C92.2351 261.503 120.437 266.687 150.587 266.687C180.738 266.687 208.936 261.503 229.96 252.087C246.997 244.458 257.578 234.519 257.578 226.176C257.578 217.833 246.997 207.898 229.96 200.265C208.936 190.849 180.749 185.665 150.587 185.665Z" fill="#4870F4"/>
</g>
<path d="M233.32 132.539C239.042 120.181 233.656 105.527 221.29 99.8095C208.924 94.0914 194.261 99.4741 188.54 111.832C182.818 124.19 188.204 138.843 200.57 144.561C212.936 150.279 227.599 144.897 233.32 132.539Z" fill="#AAB7D5"/>
<path d="M231.692 133.135C237.413 120.777 232.027 106.124 219.661 100.406C207.296 94.6876 192.633 100.07 186.911 112.428C181.19 124.786 186.576 139.44 198.942 145.158C211.307 150.876 225.97 145.493 231.692 133.135Z" fill="url(#paint3_linear_70_2770)"/>
<path d="M230.417 123.489C230.804 111.838 221.666 102.08 210.007 101.693C198.349 101.307 188.584 110.439 188.197 122.09C187.811 133.741 196.948 143.499 208.607 143.886C220.265 144.272 230.03 135.141 230.417 123.489Z" fill="url(#paint4_linear_70_2770)"/>
<path opacity="0.1" d="M190.504 130.617C189.048 126.665 188.81 122.367 189.82 118.278C190.829 114.189 193.04 110.495 196.168 107.673C199.296 104.85 203.198 103.028 207.371 102.441C211.545 101.853 215.798 102.528 219.585 104.377C217.121 102.994 214.404 102.118 211.595 101.804C208.786 101.489 205.943 101.741 203.233 102.545C200.524 103.349 198.004 104.689 195.822 106.485C193.64 108.281 191.842 110.496 190.533 112.999C189.224 115.503 188.431 118.243 188.202 121.059C187.973 123.874 188.312 126.706 189.199 129.388C190.086 132.07 191.502 134.547 193.365 136.671C195.227 138.796 197.498 140.525 200.042 141.756C195.627 139.308 192.242 135.354 190.504 130.617Z" fill="black"/>
<path d="M217.718 121.16C216.925 120.581 215.961 120.284 214.98 120.316C215.424 119.865 215.772 119.33 216.005 118.742C216.319 117.745 216.269 116.67 215.863 115.707C215.524 114.692 214.869 113.813 213.992 113.199C212.668 112.322 210.965 112.207 208.883 112.855L207.926 110.238L205.876 110.986L206.83 113.58L204.533 114.421L203.58 111.831L201.534 112.578L202.484 115.169L199.54 116.249L206.314 134.751L209.257 133.671L209.972 135.607L212.018 134.86L211.326 132.92L213.622 132.075L214.333 134.011L216.383 133.264L215.657 131.29C216.184 131.057 216.695 130.789 217.187 130.486C217.84 130.094 218.402 129.567 218.838 128.942C219.273 128.316 219.57 127.606 219.711 126.857C219.939 125.772 219.848 124.644 219.45 123.609C219.124 122.641 218.522 121.79 217.718 121.16ZM212.324 117.475C212.609 118.252 212.56 118.888 212.171 119.374C211.694 119.922 211.076 120.329 210.383 120.551L205.895 122.2L204.399 118.125L208.419 116.649C209.152 116.357 209.926 116.183 210.712 116.133C211.47 116.165 212.008 116.613 212.324 117.475ZM215.066 127.526C214.563 127.988 213.964 128.334 213.312 128.539L208.823 130.187L207.013 125.261L211.565 123.59C212.188 123.335 212.856 123.208 213.529 123.216C214.446 123.289 215.081 123.804 215.432 124.764C215.851 125.911 215.728 126.827 215.066 127.526Z" fill="#4870F4"/>
<path d="M121.068 92.0537C129.442 83.685 129.442 70.1167 121.068 61.748C112.694 53.3794 99.1166 53.3794 90.7426 61.7481C82.3686 70.1167 82.3686 83.685 90.7426 92.0537C99.1166 100.422 112.694 100.422 121.068 92.0537Z" fill="#AAB7D5"/>
<path d="M119.622 91.646C127.996 83.2773 127.996 69.709 119.622 61.3403C111.248 52.9717 97.6713 52.9717 89.2973 61.3403C80.9233 69.709 80.9233 83.2773 89.2973 91.646C97.6713 100.015 111.248 100.015 119.622 91.646Z" fill="url(#paint5_linear_70_2770)"/>
<path d="M119.144 87.4887C125.227 79.3831 123.584 67.8841 115.473 61.8049C107.362 55.7257 95.8558 57.3684 89.7727 65.4739C83.6896 73.5795 85.3334 85.0786 93.4441 91.1578C101.555 97.237 113.061 95.5943 119.144 87.4887Z" fill="url(#paint6_linear_70_2770)"/>
<path opacity="0.1" d="M87.2344 72.3767C88.2361 68.8562 90.2688 65.7156 93.0711 63.359C95.8734 61.0024 99.3171 59.5376 102.959 59.1529C106.601 58.7682 110.275 59.4813 113.509 61.2004C116.742 62.9195 119.387 65.566 121.103 68.7995C120.074 66.5753 118.61 64.5795 116.797 62.9303C114.983 61.281 112.858 60.0116 110.545 59.1971C108.233 58.3826 105.78 58.0395 103.333 58.188C100.886 58.3366 98.493 58.9738 96.2962 60.062C94.0993 61.1502 92.143 62.6673 90.5428 64.5238C88.9426 66.3803 87.7308 68.5384 86.9792 70.8707C86.2276 73.2031 85.9513 75.6623 86.1666 78.1031C86.382 80.544 87.0846 82.9169 88.2331 85.0818C86.3841 81.1041 86.0296 76.5942 87.2344 72.3767Z" fill="black"/>
<path d="M111.199 79.6396C110.938 78.8265 110.411 78.1248 109.703 77.6473C110.244 77.5575 110.761 77.3605 111.225 77.0679C111.958 76.5281 112.474 75.7448 112.68 74.8588C112.958 73.9694 112.943 73.0145 112.639 72.1339C112.155 70.8356 111.017 69.8837 109.224 69.2781L109.882 66.9569L108.057 66.4411L107.402 68.7473L105.356 68.168L106.015 65.8579L104.189 65.3384L103.539 67.6559L100.92 66.9083L96.2339 83.355L98.8521 84.1026L98.3696 85.8332L100.195 86.3528L100.685 84.6296L102.731 85.209L102.241 86.9359L104.066 87.4518L104.563 85.6949C105.057 85.8017 105.556 85.8741 106.06 85.9117C106.771 85.9736 107.488 85.8713 108.154 85.6127C108.723 85.3937 109.245 85.0676 109.691 84.6521C110.406 84.0044 110.919 83.1648 111.169 82.2337C111.432 81.3904 111.442 80.4886 111.199 79.6396ZM109.295 74.2944C109.245 74.5818 109.118 74.8503 108.928 75.0714C108.738 75.2926 108.491 75.458 108.214 75.5503C107.595 75.6951 106.947 75.6654 106.344 75.4643L102.338 74.343L103.374 70.7135L106.957 71.7339C107.619 71.9035 108.25 72.176 108.827 72.5413C109.362 72.9375 109.516 73.5281 109.295 74.2944ZM106.078 82.7607C105.488 82.8278 104.89 82.7639 104.328 82.5738L100.329 81.4524L101.579 77.0641L105.633 78.2154C106.2 78.3581 106.733 78.6122 107.2 78.963C107.494 79.2078 107.705 79.5379 107.803 79.9076C107.901 80.2773 107.881 80.6683 107.746 81.0263C107.46 82.0306 106.904 82.6087 106.078 82.7607Z" fill="#4870F4"/>
<path opacity="0.1" d="M149.17 240.178C174.159 240.178 194.416 232.532 194.416 223.1C194.416 213.668 174.159 206.021 149.17 206.021C124.181 206.021 103.924 213.668 103.924 223.1C103.924 232.532 124.181 240.178 149.17 240.178Z" fill="#1111FF"/>
<path d="M194.416 203.872C194.416 203.689 194.416 203.499 194.39 203.327H194.416V110.268L103.92 112.44V203.342H103.946C104.694 212.522 124.664 219.874 149.17 219.874C173.676 219.874 193.627 212.507 194.39 203.342C194.39 203.525 194.416 203.715 194.416 203.887C194.416 205.685 193.668 207.416 192.321 209.038C193.683 207.401 194.416 205.67 194.416 203.872Z" fill="white"/>
<path d="M180.106 216.334C179.403 216.584 178.678 216.824 177.933 217.056C178.676 216.824 179.4 216.584 180.106 216.334Z" fill="white"/>
<path d="M184.067 214.742C183.45 215.023 182.814 215.299 182.152 215.565C182.814 215.303 183.45 215.023 184.067 214.742Z" fill="white"/>
<path d="M187.463 212.97C186.946 213.282 186.405 213.584 185.839 213.879C186.405 213.582 186.946 213.279 187.463 212.97Z" fill="white"/>
<path d="M156.8 220.708C155.802 220.77 154.805 220.822 153.808 220.865C154.813 220.822 155.81 220.77 156.8 220.708Z" fill="white"/>
<path d="M177.933 217.056C176.063 217.635 174.084 218.158 171.993 218.622C174.084 218.158 176.07 217.635 177.933 217.056Z" fill="white"/>
<path opacity="0.5" d="M149.17 124.177C124.181 124.177 103.913 132.172 103.913 142.036V201.746C103.913 210.003 124.174 220.039 149.17 219.859C176.627 219.665 194.427 210.003 194.427 201.746V142.04C194.416 132.172 174.159 124.177 149.17 124.177Z" fill="url(#paint7_linear_70_2770)"/>
<path d="M171.264 203.872C156.676 200.977 141.66 200.977 127.072 203.872H103.92L103.969 218.005C103.937 218.262 103.921 218.52 103.92 218.779C103.92 228.21 124.181 235.858 149.177 235.858C174.174 235.858 194.435 228.21 194.435 218.779V203.872H171.264Z" fill="url(#paint8_linear_70_2770)"/>
<path d="M149.17 220.951C174.159 220.951 194.416 213.305 194.416 203.872C194.416 194.44 174.159 186.794 149.17 186.794C124.181 186.794 103.924 194.44 103.924 203.872C103.924 213.305 124.181 220.951 149.17 220.951Z" fill="url(#paint9_linear_70_2770)"/>
<path d="M149.17 219.859C124.664 219.859 104.728 212.507 103.946 203.341C103.946 203.524 103.92 203.715 103.92 203.887C103.92 213.321 124.181 220.965 149.177 220.965C174.174 220.965 194.435 213.321 194.435 203.887C194.435 203.704 194.435 203.513 194.409 203.341C193.627 212.507 173.672 219.859 149.17 219.859Z" fill="white"/>
<g opacity="0.3">
<path d="M149.17 217.176C170.633 217.176 188.032 211.22 188.032 203.872C188.032 196.525 170.633 190.569 149.17 190.569C127.707 190.569 110.309 196.525 110.309 203.872C110.309 211.22 127.707 217.176 149.17 217.176Z" fill="url(#paint10_linear_70_2770)"/>
</g>
<g opacity="0.5">
<path d="M149.17 157.025C174.159 157.025 194.416 149.672 194.416 140.601C194.416 131.53 174.159 124.177 149.17 124.177C124.181 124.177 103.924 131.53 103.924 140.601C103.924 149.672 124.181 157.025 149.17 157.025Z" fill="url(#paint11_linear_70_2770)"/>
</g>
<path d="M171.264 99.2298C156.676 96.3342 141.66 96.3342 127.072 99.2298H103.92L103.969 113.363C103.937 113.62 103.921 113.878 103.92 114.137C103.92 123.567 124.181 131.215 149.177 131.215C174.174 131.215 194.435 123.567 194.435 114.137V99.2298H171.264Z" fill="url(#paint12_linear_70_2770)"/>
<path d="M149.17 116.308C174.159 116.308 194.416 108.662 194.416 99.2298C194.416 89.7976 174.159 82.1514 149.17 82.1514C124.181 82.1514 103.924 89.7976 103.924 99.2298C103.924 108.662 124.181 116.308 149.17 116.308Z" fill="url(#paint13_linear_70_2770)"/>
<path d="M149.17 115.221C124.664 115.221 104.728 107.865 103.946 98.6807C103.946 98.8638 103.92 99.0545 103.92 99.2264C103.92 108.661 124.181 116.305 149.177 116.305C174.174 116.305 194.435 108.661 194.435 99.2264C194.435 99.047 194.435 98.8526 194.409 98.6807C193.627 107.865 173.672 115.221 149.17 115.221Z" fill="white"/>
<path opacity="0.1" d="M81.7701 234.321C95.7714 234.321 107.122 232.75 107.122 230.811C107.122 228.873 95.7714 227.301 81.7701 227.301C67.7688 227.301 56.4185 228.873 56.4185 230.811C56.4185 232.75 67.7688 234.321 81.7701 234.321Z" fill="#6989FE"/>
<path d="M97.2885 233.181C114.099 233.181 127.727 219.562 127.727 202.762C127.727 185.962 114.099 172.343 97.2885 172.343C80.4778 172.343 66.8501 185.962 66.8501 202.762C66.8501 219.562 80.4778 233.181 97.2885 233.181Z" fill="#AAB7D5"/>
<path d="M116.688 224.047C128.575 212.168 128.575 192.907 116.688 181.028C104.801 169.149 85.5283 169.149 73.6414 181.028C61.7544 192.907 61.7544 212.168 73.6414 224.047C85.5283 235.926 104.801 235.926 116.688 224.047Z" fill="url(#paint14_linear_70_2770)"/>
<path d="M118.007 215.071C124.934 202.464 120.322 186.632 107.707 179.71C95.092 172.788 79.2502 177.396 72.3236 190.003C65.3969 202.61 70.0084 218.442 82.6236 225.364C95.2388 232.287 111.081 227.678 118.007 215.071Z" fill="url(#paint15_linear_70_2770)"/>
<path opacity="0.1" d="M70.0818 200.972C70.6242 195.804 72.7017 190.917 76.0469 186.939C79.3922 182.962 83.852 180.076 88.8525 178.652C93.853 177.229 99.1652 177.334 104.105 178.954C109.046 180.573 113.388 183.633 116.573 187.74C114.596 184.874 112.063 182.433 109.125 180.563C106.187 178.692 102.904 177.43 99.4691 176.85C96.0342 176.27 92.5179 176.384 89.1281 177.186C85.7383 177.988 82.544 179.462 79.7341 181.52C76.9242 183.577 74.5559 186.177 72.7693 189.166C70.9826 192.154 69.814 195.471 69.3325 198.919C68.851 202.366 69.0665 205.876 69.9661 209.239C70.8658 212.602 72.4313 215.751 74.5701 218.499C71.0157 213.385 69.4224 207.163 70.0818 200.972Z" fill="black"/>
<path d="M105.36 205.304C104.8 204.232 103.897 203.38 102.794 202.882C103.531 202.625 104.207 202.222 104.784 201.697C105.622 200.882 106.123 199.735 106.28 198.262C106.455 196.949 106.203 195.615 105.562 194.457C104.565 192.765 102.741 191.711 100.09 191.294L100.464 187.889L97.786 187.609L97.412 190.995L94.4198 190.678L94.7938 187.291L92.1158 187.011L91.7604 190.397L87.8967 189.994L85.3496 214.152L89.1834 214.555L88.9141 217.086L91.5921 217.37L91.8614 214.839L94.8537 215.153L94.5881 217.684L97.2661 217.968L97.5392 215.385C98.249 215.416 98.9602 215.397 99.6674 215.329C100.606 215.251 101.517 214.975 102.341 214.519C103.165 214.064 103.883 213.439 104.447 212.686C105.297 211.611 105.816 210.313 105.944 208.948C106.112 207.703 105.909 206.435 105.36 205.304ZM101.399 198.292C101.289 199.308 100.888 199.981 100.195 200.31C99.3691 200.659 98.463 200.773 97.5766 200.639L91.7006 200.022L92.2654 194.696L97.5205 195.249C98.4903 195.325 99.442 195.553 100.341 195.926C101.166 196.384 101.519 197.173 101.399 198.292ZM98.9605 210.911C98.1516 211.151 97.2995 211.208 96.4657 211.079L90.5972 210.462L91.263 204.022L97.21 204.646C98.0381 204.708 98.8456 204.934 99.5851 205.311C100.56 205.892 100.981 206.809 100.849 208.063C100.705 209.55 100.075 210.5 98.9605 210.911Z" fill="#4870F4"/>
<path d="M264.801 49.821C273.261 41.3662 273.261 27.6582 264.801 19.2034C256.341 10.7486 242.624 10.7486 234.164 19.2034C225.704 27.6582 225.704 41.3662 234.164 49.821C242.624 58.2758 256.341 58.2758 264.801 49.821Z" fill="url(#paint16_linear_70_2770)"/>
<path d="M272.902 23.5488C270 23.55 267.146 24.2939 264.613 25.7098C262.08 27.1257 259.951 29.1663 258.431 31.6372C256.911 34.108 256.049 36.9268 255.928 39.8249C255.807 42.723 256.43 45.6038 257.739 48.1928H236.363C236.5 47.4732 236.569 46.7423 236.569 46.0098C236.569 43.7364 235.894 41.514 234.631 39.6237C233.367 37.7334 231.57 36.2602 229.468 35.3904C227.366 34.5205 225.054 34.2931 222.823 34.7369C220.591 35.1807 218.542 36.2758 216.934 37.8836C215.325 39.4915 214.23 41.5399 213.787 43.7697C213.344 45.9996 213.572 48.3108 214.443 50.411C215.314 52.5112 216.789 54.306 218.681 55.5686C220.573 56.8311 222.797 57.5046 225.072 57.5038H272.902C277.408 57.5038 281.729 55.7151 284.915 52.5312C288.101 49.3473 289.891 45.0291 289.891 40.5263C289.891 36.0236 288.101 31.7053 284.915 28.5214C281.729 25.3375 277.408 23.5488 272.902 23.5488Z" fill="url(#paint17_linear_70_2770)"/>
<path d="M264.792 49.8185C273.252 41.3637 273.252 27.6558 264.792 19.201C256.331 10.7462 242.615 10.7462 234.154 19.201C225.694 27.6558 225.694 41.3637 234.154 49.8185C242.615 58.2733 256.331 58.2733 264.792 49.8185Z" fill="url(#paint18_linear_70_2770)"/>
<path d="M225.071 57.4889C231.421 57.4889 236.569 52.3445 236.569 45.9986C236.569 39.6527 231.421 34.5083 225.071 34.5083C218.721 34.5083 213.574 39.6527 213.574 45.9986C213.574 52.3445 218.721 57.4889 225.071 57.4889Z" fill="url(#paint19_linear_70_2770)"/>
<path d="M284.915 52.5191C291.549 45.8889 291.549 35.1394 284.915 28.5093C278.28 21.8791 267.524 21.8791 260.89 28.5093C254.255 35.1394 254.255 45.8889 260.89 52.5191C267.524 59.1492 278.28 59.1492 284.915 52.5191Z" fill="url(#paint20_linear_70_2770)"/>
<path d="M290.526 59.8064C289.214 56.8659 287.728 54.0063 286.075 51.2429L285.997 51.3363C287.639 54.0844 289.117 56.9277 290.421 59.8513C294.816 69.824 295.149 77.311 291.36 80.9367C289.733 82.488 287.448 83.2243 284.661 83.2243C273.998 83.2243 255.992 72.433 239.572 55.2724C229.533 44.7801 221.582 33.4991 217.176 23.5003C212.77 13.5014 212.448 6.04056 216.237 2.41855C217.849 0.878535 220.123 0.112267 222.969 0.112267C226.807 0.112267 231.665 1.51771 237.287 4.29871C242.117 6.74538 246.716 9.62278 251.029 12.8959L251.242 12.9145C246.881 9.59222 242.228 6.67217 237.339 4.19031C227.517 -0.668953 220.003 -1.33056 216.173 2.32136C212.343 5.97328 212.654 13.5276 217.071 23.5489C221.488 33.5701 229.444 44.8548 239.49 55.3434C249.536 65.8319 260.473 74.302 270.273 79.15C275.909 81.9385 280.787 83.3551 284.635 83.3551C287.497 83.3551 289.801 82.5814 291.431 81.0227C295.269 77.3521 294.943 69.8165 290.526 59.8064Z" fill="#4870F4"/>
<path d="M291.439 2.33281C287.609 -1.32659 280.094 -0.657503 270.272 4.20176C260.451 9.06102 249.54 17.5087 239.49 28.0084C229.44 38.5081 221.481 49.8003 217.071 59.8067C212.661 69.813 212.328 77.3747 216.158 81.0192C217.789 82.5779 220.089 83.3516 222.954 83.3516C226.81 83.3516 231.688 81.9462 237.324 79.1577C246.447 74.6423 256.549 67.0058 266.009 57.5004H265.848C250.034 73.3603 233.128 83.2245 222.935 83.2245C220.145 83.2245 217.864 82.477 216.237 80.937C212.444 77.3112 212.777 69.8242 217.175 59.8515C221.574 49.8788 229.518 38.5792 239.572 28.0794C249.626 17.5797 260.518 9.14325 270.325 4.29894C275.935 1.51795 280.798 0.112503 284.643 0.112503C287.474 0.112503 289.748 0.878771 291.375 2.41878C295.164 6.0408 294.831 13.5278 290.436 23.5005C289.344 25.9594 288.124 28.3598 286.782 30.6922L286.857 30.7931C288.204 28.4434 289.429 26.0255 290.526 23.5491C294.943 13.5278 295.269 5.98099 291.439 2.33281Z" fill="#4870F4"/>
<path d="M217.03 10.4662C217.03 11.2447 216.751 11.9975 216.243 12.5879C215.735 13.1784 215.032 13.5674 214.262 13.6845C214.101 13.7082 213.939 13.7207 213.776 13.7219C212.963 13.7214 212.179 13.4169 211.579 12.8683C210.979 12.3196 210.606 11.5666 210.533 10.757C210.46 9.94752 210.693 9.14012 211.186 8.49353C211.679 7.84694 212.396 7.40794 213.196 7.2628C213.382 7.22819 213.571 7.21067 213.761 7.21047C214.19 7.20899 214.614 7.29211 215.011 7.45507C215.408 7.61802 215.768 7.8576 216.072 8.16007C216.375 8.46254 216.616 8.82194 216.781 9.21767C216.945 9.61341 217.03 10.0377 217.03 10.4662Z" fill="url(#paint21_linear_70_2770)"/>
<path opacity="0.2" d="M217.03 10.4662C217.03 11.2447 216.75 11.9975 216.243 12.5879C215.735 13.1783 215.032 13.5674 214.262 13.6845C216.226 11.0081 214.311 8.41031 213.211 7.26278C213.397 7.22817 213.586 7.21065 213.776 7.21045C214.639 7.21144 215.467 7.55489 216.077 8.16534C216.687 8.7758 217.03 9.60333 217.03 10.4662Z" fill="url(#paint22_linear_70_2770)"/>
<path d="M294.091 64.0527C294.091 64.6027 293.893 65.1345 293.534 65.5515C293.175 65.9685 292.679 66.2431 292.135 66.3253C292.021 66.3435 291.906 66.3522 291.79 66.3515C291.214 66.3536 290.657 66.139 290.231 65.7505C289.805 65.3619 289.541 64.8276 289.491 64.2534C289.44 63.6793 289.608 63.1071 289.959 62.6504C290.311 62.1937 290.822 61.8858 291.39 61.7875C291.522 61.7651 291.656 61.7538 291.79 61.7539C292.4 61.7539 292.986 61.9961 293.417 62.4272C293.848 62.8583 294.091 63.443 294.091 64.0527Z" fill="url(#paint23_linear_70_2770)"/>
<path opacity="0.2" d="M294.091 64.0527C294.091 64.6027 293.893 65.1345 293.535 65.5515C293.176 65.9685 292.679 66.2431 292.135 66.3254C293.522 64.434 292.168 62.5875 291.387 61.7875C291.519 61.7651 291.653 61.7538 291.787 61.7539C292.089 61.7534 292.389 61.8125 292.668 61.9278C292.948 62.0431 293.202 62.2124 293.416 62.4259C293.63 62.6394 293.8 62.893 293.915 63.1721C294.031 63.4513 294.091 63.7505 294.091 64.0527Z" fill="url(#paint24_linear_70_2770)"/>
<path d="M250.79 19.2841C250.789 19.8737 250.576 20.4434 250.192 20.8904C249.807 21.3373 249.275 21.632 248.691 21.7212C248.567 21.7378 248.443 21.7465 248.317 21.7473C247.704 21.7429 247.115 21.5101 246.664 21.0946C246.213 20.679 245.934 20.1105 245.88 19.5C245.826 18.8896 246.002 18.281 246.373 17.7932C246.745 17.3054 247.284 16.9733 247.887 16.8619C248.029 16.8351 248.173 16.8213 248.317 16.8208C248.642 16.8203 248.963 16.8836 249.262 17.0072C249.562 17.1307 249.835 17.312 250.064 17.5407C250.294 17.7695 250.476 18.0412 250.6 18.3403C250.725 18.6394 250.789 18.9601 250.79 19.2841Z" fill="url(#paint25_linear_70_2770)"/>
<path opacity="0.2" d="M250.79 19.2841C250.788 19.8737 250.576 20.4434 250.191 20.8904C249.806 21.3373 249.274 21.632 248.691 21.7212C250.187 19.6952 248.729 17.7291 247.895 16.8619C248.036 16.8351 248.18 16.8213 248.325 16.8208C248.978 16.8218 249.604 17.0816 250.066 17.5434C250.529 18.0051 250.789 18.6311 250.79 19.2841Z" fill="url(#paint26_linear_70_2770)"/>
<path d="M221.9 81.5909C221.9 82.6292 221.527 83.6331 220.85 84.4205C220.173 85.2078 219.235 85.7263 218.208 85.882C217.991 85.915 217.772 85.9312 217.553 85.9305C216.477 85.9175 215.444 85.505 214.654 84.7732C213.865 84.0413 213.377 83.0424 213.283 81.9705C213.19 80.8987 213.499 79.8305 214.15 78.9735C214.801 78.1165 215.747 77.5319 216.805 77.3334C217.052 77.2885 217.302 77.266 217.553 77.2661C218.703 77.2651 219.806 77.7198 220.621 78.5306C221.436 79.3413 221.896 80.4418 221.9 81.5909Z" fill="url(#paint27_linear_70_2770)"/>
<path opacity="0.2" d="M221.9 81.5908C221.9 82.6292 221.527 83.6331 220.85 84.4205C220.173 85.2078 219.235 85.7263 218.208 85.8819C220.826 82.316 218.268 78.851 216.802 77.3222C217.049 77.2773 217.299 77.2547 217.55 77.2549C218.12 77.2539 218.686 77.3653 219.213 77.5827C219.741 77.8001 220.22 78.1193 220.624 78.522C221.028 78.9247 221.349 79.403 221.567 79.9295C221.786 80.4561 221.899 81.0206 221.9 81.5908Z" fill="url(#paint28_linear_70_2770)"/>
<path d="M261.446 63.29C261.445 63.6585 261.313 64.0148 261.073 64.2945C260.833 64.5742 260.501 64.7588 260.136 64.8151C260.059 64.8208 259.982 64.8208 259.905 64.8151C259.522 64.8109 259.154 64.6646 258.874 64.4046C258.593 64.1446 258.419 63.7895 258.386 63.4085C258.353 63.0274 258.463 62.6477 258.695 62.3432C258.926 62.0388 259.263 61.8313 259.639 61.7612C259.727 61.7462 259.816 61.7387 259.905 61.7388C260.108 61.7388 260.309 61.779 260.497 61.8571C260.685 61.9352 260.855 62.0496 260.998 62.1938C261.141 62.338 261.255 62.5091 261.331 62.6972C261.408 62.8854 261.447 63.0868 261.446 63.29Z" fill="url(#paint29_linear_70_2770)"/>
<path opacity="0.2" d="M261.446 63.2902C261.446 63.6587 261.314 64.015 261.073 64.2947C260.833 64.5744 260.501 64.759 260.137 64.8152C261.064 63.5481 260.159 62.3183 259.639 61.7763C259.727 61.7613 259.816 61.7538 259.905 61.7539C260.313 61.7539 260.704 61.9156 260.993 62.2036C261.282 62.4916 261.445 62.8824 261.446 63.2902Z" fill="url(#paint30_linear_70_2770)"/>
<path d="M295.557 8.82915C295.556 9.21843 295.416 9.59465 295.163 9.89002C294.909 10.1854 294.558 10.3805 294.173 10.4402C294.093 10.4521 294.011 10.4584 293.93 10.4589C293.521 10.4627 293.125 10.3122 292.821 10.0372C292.518 9.76223 292.33 9.38309 292.294 8.97544C292.258 8.56778 292.377 8.1616 292.628 7.83794C292.878 7.51428 293.242 7.29696 293.646 7.22933C293.739 7.2112 293.835 7.20243 293.93 7.20317C294.362 7.20317 294.775 7.37448 295.08 7.67941C295.386 7.98434 295.557 8.39791 295.557 8.82915Z" fill="url(#paint31_linear_70_2770)"/>
<path opacity="0.2" d="M295.557 8.82915C295.556 9.21843 295.416 9.59465 295.162 9.89002C294.909 10.1854 294.558 10.3805 294.173 10.4402C295.153 9.10202 294.195 7.80123 293.646 7.22933C293.739 7.2112 293.834 7.20243 293.93 7.20317C294.361 7.20317 294.775 7.37448 295.08 7.67941C295.385 7.98434 295.557 8.39791 295.557 8.82915Z" fill="url(#paint32_linear_70_2770)"/>
<path d="M33.9653 108.148L43.7723 113.501L53.9684 108.406L43.9668 102.986L33.9653 108.148Z" fill="url(#paint33_linear_70_2770)"/>
<path d="M33.9653 108.148V119.915L43.9668 125.287L43.7723 113.501L33.9653 108.148Z" fill="url(#paint34_linear_70_2770)"/>
<path d="M43.7725 113.501L43.967 125.287L53.9685 119.676V108.407L43.7725 113.501Z" fill="url(#paint35_linear_70_2770)"/>
<path opacity="0.5" d="M33.9653 119.934L43.7723 125.287L53.9684 119.676L43.9668 114.772L33.9653 119.934Z" fill="url(#paint36_linear_70_2770)"/>
<path d="M139.165 25.0291L145.456 28.4604L151.994 25.1935L145.579 21.7173L139.165 25.0291Z" fill="url(#paint37_linear_70_2770)"/>
<path d="M139.165 25.0293V32.5761L145.579 36.0187L145.456 28.4607L139.165 25.0293Z" fill="url(#paint38_linear_70_2770)"/>
<path d="M145.456 28.4603L145.579 36.0183L151.994 32.4187V25.1934L145.456 28.4603Z" fill="url(#paint39_linear_70_2770)"/>
<path opacity="0.5" d="M139.165 32.5868L145.456 36.0182L151.994 32.4186L145.579 29.2788L139.165 32.5868Z" fill="url(#paint40_linear_70_2770)"/>
<path d="M239.445 168.179L245.736 171.611L252.274 168.344L245.86 164.871L239.445 168.179Z" fill="url(#paint41_linear_70_2770)"/>
<path d="M239.445 168.179V175.726L245.86 179.169L245.736 171.611L239.445 168.179Z" fill="url(#paint42_linear_70_2770)"/>
<path d="M245.736 171.611L245.86 179.169L252.274 175.573V168.344L245.736 171.611Z" fill="url(#paint43_linear_70_2770)"/>
<path opacity="0.5" d="M239.445 175.737L245.736 179.169L252.274 175.573L245.86 172.429L239.445 175.737Z" fill="url(#paint44_linear_70_2770)"/>
<path d="M63.1657 42.1562H32.2598V79.5912H63.1657V42.1562Z" fill="url(#paint45_linear_70_2770)"/>
<path d="M43.6265 42.1562H32.2598V79.5912H43.6265V42.1562Z" fill="url(#paint46_linear_70_2770)"/>
<path d="M52.9288 3.75293L30.603 44.395L76.9862 41.2066L52.9288 3.75293Z" fill="url(#paint47_linear_70_2770)"/>
<path d="M20.3022 41.9392L64.561 37.9546L76.9862 41.2066L30.603 44.395L20.3022 41.9392Z" fill="url(#paint48_linear_70_2770)"/>
<path d="M52.9287 3.75293H42.0333L20.3022 41.9392L30.603 44.395" fill="url(#paint49_linear_70_2770)"/>
<path opacity="0.5" d="M52.9289 3.75293L48.1787 12.4174L65.0137 37.9546L77.4389 41.2066L52.9289 3.75293Z" fill="url(#paint50_linear_70_2770)"/>
<path d="M290.541 147.157H271.369V170.377H290.541V147.157Z" fill="url(#paint51_linear_70_2770)"/>
<path d="M278.419 147.157H271.369V170.377H278.419V147.157Z" fill="url(#paint52_linear_70_2770)"/>
<path d="M284.19 123.335L270.34 148.544L299.11 146.566L284.19 123.335Z" fill="url(#paint53_linear_70_2770)"/>
<path d="M263.952 147.023L291.402 144.548L299.11 146.567L270.34 148.544L263.952 147.023Z" fill="url(#paint54_linear_70_2770)"/>
<path d="M284.19 123.335H277.428L263.952 147.022L270.34 148.544" fill="url(#paint55_linear_70_2770)"/>
<path opacity="0.5" d="M284.191 123.335L281.243 128.711L291.686 144.548L299.395 146.566L284.191 123.335Z" fill="url(#paint56_linear_70_2770)"/>
</g>
<defs>
<linearGradient id="paint0_linear_70_2770" x1="150.958" y1="229.286" x2="150.958" y2="62.8642" gradientUnits="userSpaceOnUse">
<stop stop-color="#FBFAFD"/>
<stop offset="1" stop-color="#4870F4" stop-opacity="0"/>
</linearGradient>
<linearGradient id="paint1_linear_70_2770" x1="70.9679" y1="238.564" x2="250.961" y2="232.822" gradientUnits="userSpaceOnUse">
<stop stop-color="#E5E8F7"/>
<stop offset="1" stop-color="#FBFAFD"/>
</linearGradient>
<linearGradient id="paint2_linear_70_2770" x1="70.9232" y1="229.839" x2="250.715" y2="224.102" gradientUnits="userSpaceOnUse">
<stop stop-color="#FBFAFD"/>
<stop offset="1" stop-color="#E5E8F7"/>
</linearGradient>
<linearGradient id="paint3_linear_70_2770" x1="210.648" y1="144.715" x2="207.963" y2="101.15" gradientUnits="userSpaceOnUse">
<stop stop-color="#DCE8FC"/>
<stop offset="1" stop-color="#E8EDFC"/>
</linearGradient>
<linearGradient id="paint4_linear_70_2770" x1="202.78" y1="105.609" x2="214.325" y2="136.039" gradientUnits="userSpaceOnUse">
<stop stop-color="#DCE8FC"/>
<stop offset="1" stop-color="#E8EDFC"/>
</linearGradient>
<linearGradient id="paint5_linear_70_2770" x1="94.187" y1="92.5975" x2="114.579" y2="60.5952" gradientUnits="userSpaceOnUse">
<stop stop-color="#DCE8FC"/>
<stop offset="1" stop-color="#E8EDFC"/>
</linearGradient>
<linearGradient id="paint6_linear_70_2770" x1="108.664" y1="61.0621" x2="101.229" y2="88.3549" gradientUnits="userSpaceOnUse">
<stop stop-color="#DCE8FC"/>
<stop offset="1" stop-color="#E8EDFC"/>
</linearGradient>
<linearGradient id="paint7_linear_70_2770" x1="118.017" y1="173.001" x2="188.334" y2="170.756" gradientUnits="userSpaceOnUse">
<stop stop-color="#4870F4"/>
<stop offset="1" stop-color="#E8EDFC"/>
</linearGradient>
<linearGradient id="paint8_linear_70_2770" x1="118.731" y1="219.747" x2="187.956" y2="217.539" gradientUnits="userSpaceOnUse">
<stop stop-color="#E8EDFC"/>
<stop offset="1" stop-color="#DCE8FC"/>
</linearGradient>
<linearGradient id="paint9_linear_70_2770" x1="118.657" y1="204.844" x2="187.523" y2="202.647" gradientUnits="userSpaceOnUse">
<stop stop-color="#DCE8FC"/>
<stop offset="1" stop-color="#E8EDFC"/>
</linearGradient>
<linearGradient id="paint10_linear_70_2770" x1="122.962" y1="204.71" x2="182.107" y2="202.82" gradientUnits="userSpaceOnUse">
<stop stop-color="#4870F4"/>
<stop offset="1" stop-color="#E8EDFC"/>
</linearGradient>
<linearGradient id="paint11_linear_70_2770" x1="118.657" y1="141.573" x2="187.523" y2="139.376" gradientUnits="userSpaceOnUse">
<stop stop-color="#4870F4"/>
<stop offset="1" stop-color="#E8EDFC"/>
</linearGradient>
<linearGradient id="paint12_linear_70_2770" x1="118.731" y1="115.108" x2="187.956" y2="112.896" gradientUnits="userSpaceOnUse">
<stop stop-color="#E8EDFC"/>
<stop offset="1" stop-color="#DCE8FC"/>
</linearGradient>
<linearGradient id="paint13_linear_70_2770" x1="118.657" y1="100.205" x2="187.523" y2="98.0047" gradientUnits="userSpaceOnUse">
<stop stop-color="#DCE8FC"/>
<stop offset="1" stop-color="#E8EDFC"/>
</linearGradient>
<linearGradient id="paint14_linear_70_2770" x1="84.7004" y1="227.558" x2="105.44" y2="177.856" gradientUnits="userSpaceOnUse">
<stop stop-color="#DCE8FC"/>
<stop offset="1" stop-color="#E8EDFC"/>
</linearGradient>
<linearGradient id="paint15_linear_70_2770" x1="97.8605" y1="179.543" x2="94.2452" y2="219.501" gradientUnits="userSpaceOnUse">
<stop stop-color="#DCE8FC"/>
<stop offset="1" stop-color="#E8EDFC"/>
</linearGradient>
<linearGradient id="paint16_linear_70_2770" x1="227.817" y1="34.5107" x2="271.145" y2="34.5107" gradientUnits="userSpaceOnUse">
<stop stop-color="#4870F4"/>
<stop offset="1" stop-color="#E8EDFC"/>
</linearGradient>
<linearGradient id="paint17_linear_70_2770" x1="213.57" y1="40.5151" x2="289.891" y2="40.5151" gradientUnits="userSpaceOnUse">
<stop stop-color="#4870F4"/>
<stop offset="1" stop-color="#E8EDFC"/>
</linearGradient>
<linearGradient id="paint18_linear_70_2770" x1="230.355" y1="20.6022" x2="259.621" y2="41.9223" gradientUnits="userSpaceOnUse">
<stop stop-color="#4870F4"/>
<stop offset="1" stop-color="#E8EDFC"/>
</linearGradient>
<linearGradient id="paint19_linear_70_2770" x1="215.085" y1="39.4647" x2="234.803" y2="52.3832" gradientUnits="userSpaceOnUse">
<stop stop-color="#4870F4"/>
<stop offset="1" stop-color="#E8EDFC" stop-opacity="0"/>
</linearGradient>
<linearGradient id="paint20_linear_70_2770" x1="259.409" y1="28.2481" x2="280.978" y2="47.8858" gradientUnits="userSpaceOnUse">
<stop stop-color="#4870F4"/>
<stop offset="1" stop-color="#E8EDFC" stop-opacity="0"/>
</linearGradient>
<linearGradient id="paint21_linear_70_2770" x1="210.518" y1="10.4662" x2="217.03" y2="10.4662" gradientUnits="userSpaceOnUse">
<stop stop-color="#4870F4"/>
<stop offset="1" stop-color="#E8EDFC"/>
</linearGradient>
<linearGradient id="paint22_linear_70_2770" x1="213.211" y1="10.4475" x2="217.03" y2="10.4475" gradientUnits="userSpaceOnUse">
<stop stop-color="#4870F4"/>
<stop offset="1" stop-color="#E8EDFC"/>
</linearGradient>
<linearGradient id="paint23_linear_70_2770" x1="289.49" y1="64.0527" x2="294.091" y2="64.0527" gradientUnits="userSpaceOnUse">
<stop stop-color="#4870F4"/>
<stop offset="1" stop-color="#E8EDFC"/>
</linearGradient>
<linearGradient id="paint24_linear_70_2770" x1="291.39" y1="64.0378" x2="294.091" y2="64.0378" gradientUnits="userSpaceOnUse">
<stop stop-color="#4870F4"/>
<stop offset="1" stop-color="#E8EDFC"/>
</linearGradient>
<linearGradient id="paint25_linear_70_2770" x1="245.86" y1="19.2841" x2="250.79" y2="19.2841" gradientUnits="userSpaceOnUse">
<stop stop-color="#4870F4"/>
<stop offset="1" stop-color="#E8EDFC"/>
</linearGradient>
<linearGradient id="paint26_linear_70_2770" x1="247.895" y1="19.2729" x2="250.79" y2="19.2729" gradientUnits="userSpaceOnUse">
<stop stop-color="#4870F4"/>
<stop offset="1" stop-color="#E8EDFC"/>
</linearGradient>
<linearGradient id="paint27_linear_70_2770" x1="213.215" y1="81.5946" x2="221.9" y2="81.5946" gradientUnits="userSpaceOnUse">
<stop stop-color="#4870F4"/>
<stop offset="1" stop-color="#E8EDFC"/>
</linearGradient>
<linearGradient id="paint28_linear_70_2770" x1="216.802" y1="81.5684" x2="221.9" y2="81.5684" gradientUnits="userSpaceOnUse">
<stop stop-color="#4870F4"/>
<stop offset="1" stop-color="#E8EDFC"/>
</linearGradient>
<linearGradient id="paint29_linear_70_2770" x1="258.349" y1="63.29" x2="261.431" y2="63.29" gradientUnits="userSpaceOnUse">
<stop stop-color="#4870F4"/>
<stop offset="1" stop-color="#E8EDFC"/>
</linearGradient>
<linearGradient id="paint30_linear_70_2770" x1="259.624" y1="63.2827" x2="261.431" y2="63.2827" gradientUnits="userSpaceOnUse">
<stop stop-color="#4870F4"/>
<stop offset="1" stop-color="#E8EDFC"/>
</linearGradient>
<linearGradient id="paint31_linear_70_2770" x1="292.303" y1="8.82915" x2="295.557" y2="8.82915" gradientUnits="userSpaceOnUse">
<stop stop-color="#4870F4"/>
<stop offset="1" stop-color="#E8EDFC"/>
</linearGradient>
<linearGradient id="paint32_linear_70_2770" x1="293.646" y1="8.82168" x2="295.557" y2="8.82168" gradientUnits="userSpaceOnUse">
<stop stop-color="#4870F4"/>
<stop offset="1" stop-color="#E8EDFC"/>
</linearGradient>
<linearGradient id="paint33_linear_70_2770" x1="37.2231" y1="108.455" x2="52.4386" y2="107.968" gradientUnits="userSpaceOnUse">
<stop stop-color="#4870F4"/>
<stop offset="1" stop-color="#E8EDFC"/>
</linearGradient>
<linearGradient id="paint34_linear_70_2770" x1="35.4914" y1="116.828" x2="43.114" y2="116.585" gradientUnits="userSpaceOnUse">
<stop stop-color="#4870F4"/>
<stop offset="1" stop-color="#E8EDFC"/>
</linearGradient>
<linearGradient id="paint35_linear_70_2770" x1="45.4144" y1="116.959" x2="53.4336" y2="116.705" gradientUnits="userSpaceOnUse">
<stop stop-color="#4870F4"/>
<stop offset="1" stop-color="#E8EDFC"/>
</linearGradient>
<linearGradient id="paint36_linear_70_2770" x1="37.2269" y1="120.241" x2="52.4535" y2="119.754" gradientUnits="userSpaceOnUse">
<stop stop-color="#4870F4"/>
<stop offset="1" stop-color="#E8EDFC"/>
</linearGradient>
<linearGradient id="paint37_linear_70_2770" x1="141.255" y1="25.2272" x2="151.014" y2="24.9128" gradientUnits="userSpaceOnUse">
<stop stop-color="#4870F4"/>
<stop offset="1" stop-color="#E8EDFC"/>
</linearGradient>
<linearGradient id="paint38_linear_70_2770" x1="140.148" y1="30.595" x2="145.033" y2="30.4378" gradientUnits="userSpaceOnUse">
<stop stop-color="#4870F4"/>
<stop offset="1" stop-color="#E8EDFC"/>
</linearGradient>
<linearGradient id="paint39_linear_70_2770" x1="146.507" y1="30.6768" x2="151.653" y2="30.5122" gradientUnits="userSpaceOnUse">
<stop stop-color="#4870F4"/>
<stop offset="1" stop-color="#E8EDFC"/>
</linearGradient>
<linearGradient id="paint40_linear_70_2770" x1="141.259" y1="32.785" x2="151.025" y2="32.4706" gradientUnits="userSpaceOnUse">
<stop stop-color="#4870F4"/>
<stop offset="1" stop-color="#E8EDFC"/>
</linearGradient>
<linearGradient id="paint41_linear_70_2770" x1="241.536" y1="168.377" x2="251.295" y2="168.067" gradientUnits="userSpaceOnUse">
<stop stop-color="#4870F4"/>
<stop offset="1" stop-color="#E8EDFC"/>
</linearGradient>
<linearGradient id="paint42_linear_70_2770" x1="240.425" y1="173.745" x2="245.314" y2="173.588" gradientUnits="userSpaceOnUse">
<stop stop-color="#4870F4"/>
<stop offset="1" stop-color="#E8EDFC"/>
</linearGradient>
<linearGradient id="paint43_linear_70_2770" x1="246.787" y1="173.831" x2="251.93" y2="173.666" gradientUnits="userSpaceOnUse">
<stop stop-color="#4870F4"/>
<stop offset="1" stop-color="#E8EDFC"/>
</linearGradient>
<linearGradient id="paint44_linear_70_2770" x1="241.536" y1="175.935" x2="251.302" y2="175.625" gradientUnits="userSpaceOnUse">
<stop stop-color="#4870F4"/>
<stop offset="1" stop-color="#E8EDFC"/>
</linearGradient>
<linearGradient id="paint45_linear_70_2770" x1="47.7109" y1="79.595" x2="47.7109" y2="42.1562" gradientUnits="userSpaceOnUse">
<stop stop-color="#E8EDFC" stop-opacity="0"/>
<stop offset="1" stop-color="#4870F4"/>
</linearGradient>
<linearGradient id="paint46_linear_70_2770" x1="37.945" y1="79.595" x2="37.945" y2="42.1562" gradientUnits="userSpaceOnUse">
<stop stop-color="#4870F4" stop-opacity="0"/>
<stop offset="1" stop-color="#E8EDFC"/>
</linearGradient>
<linearGradient id="paint47_linear_70_2770" x1="30.603" y1="24.0721" x2="76.9862" y2="24.0721" gradientUnits="userSpaceOnUse">
<stop stop-color="#4870F4"/>
<stop offset="1" stop-color="#E8EDFC"/>
</linearGradient>
<linearGradient id="paint48_linear_70_2770" x1="20.3022" y1="41.1729" x2="76.9862" y2="41.1729" gradientUnits="userSpaceOnUse">
<stop stop-color="#4870F4"/>
<stop offset="1" stop-color="#E8EDFC"/>
</linearGradient>
<linearGradient id="paint49_linear_70_2770" x1="20.3022" y1="24.0721" x2="52.9287" y2="24.0721" gradientUnits="userSpaceOnUse">
<stop stop-color="#4870F4"/>
<stop offset="1" stop-color="#E8EDFC"/>
</linearGradient>
<linearGradient id="paint50_linear_70_2770" x1="48.1787" y1="22.4798" x2="77.4389" y2="22.4798" gradientUnits="userSpaceOnUse">
<stop stop-color="#E8EDFC"/>
<stop offset="1" stop-color="#4870F4"/>
</linearGradient>
<linearGradient id="paint51_linear_70_2770" x1="280.951" y1="170.381" x2="280.951" y2="147.157" gradientUnits="userSpaceOnUse">
<stop stop-color="#E8EDFC" stop-opacity="0"/>
<stop offset="1" stop-color="#4870F4"/>
</linearGradient>
<linearGradient id="paint52_linear_70_2770" x1="274.892" y1="170.381" x2="274.892" y2="147.157" gradientUnits="userSpaceOnUse">
<stop stop-color="#4870F4" stop-opacity="0"/>
<stop offset="1" stop-color="#E8EDFC"/>
</linearGradient>
<linearGradient id="paint53_linear_70_2770" x1="270.34" y1="135.94" x2="299.11" y2="135.94" gradientUnits="userSpaceOnUse">
<stop stop-color="#4870F4"/>
<stop offset="1" stop-color="#E8EDFC"/>
</linearGradient>
<linearGradient id="paint54_linear_70_2770" x1="263.948" y1="146.548" x2="299.11" y2="146.548" gradientUnits="userSpaceOnUse">
<stop stop-color="#4870F4"/>
<stop offset="1" stop-color="#E8EDFC"/>
</linearGradient>
<linearGradient id="paint55_linear_70_2770" x1="263.948" y1="135.94" x2="284.19" y2="135.94" gradientUnits="userSpaceOnUse">
<stop stop-color="#4870F4"/>
<stop offset="1" stop-color="#E8EDFC"/>
</linearGradient>
<linearGradient id="paint56_linear_70_2770" x1="281.243" y1="134.953" x2="299.395" y2="134.953" gradientUnits="userSpaceOnUse">
<stop stop-color="#E8EDFC"/>
<stop offset="1" stop-color="#4870F4"/>
</linearGradient>
<clipPath id="clip0_70_2770">
<rect width="299.395" height="296" fill="white"/>
</clipPath>
</defs>
</svg>
