<svg width="288" height="306" viewBox="0 0 288 306" fill="none" xmlns="http://www.w3.org/2000/svg">
<g clip-path="url(#clip0_70_1812)">
<path d="M111.818 302.405C163.638 302.405 205.646 278.08 205.646 248.074C205.646 218.068 163.638 193.743 111.818 193.743C59.9988 193.743 17.9907 218.068 17.9907 248.074C17.9907 278.08 59.9988 302.405 111.818 302.405Z" fill="#3E64F0"/>
<path d="M27.3096 294.516L11.5493 303.643L80.9527 193.847L121.931 211.214L181.127 117.567L197.843 124.652L250.772 40.9205L266.528 31.793L197.843 140.459L181.127 133.37L121.931 227.021L80.9527 209.65L27.3096 294.516Z" fill="#E3DFEA"/>
<path d="M31.3657 296.877L15.6094 306L85.0127 196.203L125.987 213.571L185.183 119.923L201.9 127.009L254.828 43.2771L270.588 34.1536L201.9 142.816L185.183 135.73L125.987 229.378L85.0127 212.01L31.3657 296.877Z" fill="url(#paint0_linear_70_1812)"/>
<path d="M254.979 25.1455L270.589 34.1536L254.828 43.2771L201.9 127.009L185.183 119.923L125.987 213.571L85.0129 196.203L15.6095 306L0 296.996L69.4034 187.199L110.378 204.567L169.573 110.919L186.29 118.005L239.219 34.273L254.979 25.1455Z" fill="url(#paint1_linear_70_1812)"/>
<path d="M192.97 61.2295V79.1024L270.553 34.062V111.564L287.976 101.589V28.6126V6.30535V6.21777L192.97 61.2295Z" fill="url(#paint2_linear_70_1812)"/>
<path d="M192.994 61.2494L181.579 54.9242L276.586 0L288 6.32516L192.994 61.2494Z" fill="url(#paint3_linear_70_1812)"/>
<path d="M192.97 79.0625L181.579 72.7573V54.9282L192.97 61.2335V79.0625Z" fill="url(#paint4_linear_70_1812)"/>
<path d="M270.557 111.25L258.849 104.809V52.4404L270.557 34.2053V111.25Z" fill="url(#paint5_linear_70_1812)"/>
<path d="M160.985 85.2841L162.723 82.7962L153.94 77.7926C153.773 77.6931 153.611 77.6015 153.444 77.51C145.716 73.2786 134.461 74.3255 121.927 81.5702C98.63 95.0604 79.7422 124.959 79.7422 148.305C79.7422 158.113 83.0721 165.214 88.6562 169.155C89.4872 169.74 90.3662 170.252 91.2836 170.688L98.8959 175.146L100.583 172.71C106.838 172.77 114.124 170.664 121.907 166.158C145.204 152.668 164.088 122.789 164.088 99.4231C164.088 93.7946 162.985 89.0497 160.985 85.2841Z" fill="#FF9D4D"/>
<path d="M142.966 75.6831C146.492 75.6162 149.978 76.4447 153.099 78.0913H153.135C153.289 78.1749 153.436 78.2625 153.595 78.354L161.731 82.9914L160.429 84.8782L160.195 85.2166L160.39 85.5828C162.394 89.3564 163.414 94.0137 163.414 99.4193C163.414 122.535 144.641 152.206 121.57 165.569C114.268 169.792 107.104 172.029 100.845 172.029H100.23L100.015 172.36L98.6858 174.282L91.5974 170.123H91.5736H91.5498C90.6659 169.695 89.8178 169.198 89.0137 168.634L88.9819 168.61C84.2947 165.286 81.3974 159.729 80.6116 152.536C80.5799 152.27 80.5521 151.999 80.5322 151.74C80.437 150.658 80.3894 149.515 80.3894 148.353C80.3878 146.287 80.5203 144.223 80.7862 142.175C80.818 141.94 80.8497 141.701 80.8855 141.462C81.32 138.538 81.9633 135.649 82.8104 132.816L83.0088 132.156C83.8567 129.417 84.8557 126.727 86.0013 124.099L86.2712 123.482C87.3944 120.946 88.6763 118.391 90.0853 115.895C90.1924 115.7 90.2996 115.497 90.4147 115.31C91.8038 112.878 93.3278 110.461 94.9471 108.145L95.344 107.591C96.9871 105.259 98.7413 102.982 100.571 100.824L101.012 100.303C102.909 98.0858 104.909 95.9482 106.965 93.9341L107.469 93.4445C109.63 91.375 111.897 89.4192 114.26 87.585L114.839 87.1432C117.202 85.3277 119.674 83.6593 122.241 82.1475L122.733 81.8649L123.412 81.4868C126.441 79.7898 129.632 78.4003 132.937 77.339L133.036 77.3071L133.913 77.0444C136.848 76.173 139.89 75.7148 142.95 75.6831H142.966ZM142.966 75.0063C139.845 75.0375 136.743 75.5051 133.751 76.3956L132.862 76.6583C129.475 77.7366 126.205 79.1542 123.102 80.8897L122.412 81.2877L121.919 81.5703C119.333 83.0751 116.841 84.7382 114.458 86.5501L113.875 86.9959C111.491 88.844 109.206 90.8158 107.028 92.9031L106.524 93.3927C104.441 95.4188 102.436 97.5604 100.531 99.7935C100.38 99.9647 100.234 100.14 100.083 100.315C98.2333 102.512 96.4751 104.797 94.8241 107.142C94.6931 107.325 94.5621 107.512 94.4272 107.699C92.792 110.055 91.2521 112.476 89.863 114.928C89.7479 115.123 89.6368 115.326 89.5296 115.517C88.1128 118.033 86.8268 120.592 85.6878 123.16C85.5965 123.371 85.5012 123.578 85.4139 123.785C84.2589 126.434 83.2519 129.147 82.3976 131.909C82.3301 132.132 82.2627 132.355 82.1992 132.578C81.3393 135.446 80.688 138.372 80.2504 141.335C80.2147 141.578 80.183 141.821 80.1512 142.059C79.8744 144.135 79.7325 146.227 79.7266 148.321C79.7266 149.515 79.7782 150.657 79.8734 151.768C79.8972 152.047 79.925 152.325 79.9568 152.6C80.7902 160.211 83.9018 165.828 88.6406 169.171C89.4782 169.749 90.3623 170.257 91.2839 170.688L98.8961 175.146L100.583 172.71H100.845C107.044 172.71 114.236 170.6 121.908 166.158C145.201 152.668 164.089 122.789 164.089 99.4233C164.089 93.7788 162.985 89.03 160.985 85.2683L162.723 82.7964L153.944 77.7928L153.448 77.5101C150.227 75.8084 146.63 74.9512 142.99 75.0183L142.966 75.0063Z" fill="#FFE840"/>
<path d="M155.815 147.946C174.434 123.12 178.176 94.4297 164.173 83.8655C150.17 73.3014 123.724 84.8634 105.105 109.69C86.4859 134.517 82.7439 163.207 96.7471 173.771C110.75 184.335 137.196 172.773 155.815 147.946Z" fill="#FFD071"/>
<path d="M155.815 147.946C174.434 123.12 178.176 94.4297 164.173 83.8655C150.17 73.3014 123.724 84.8634 105.105 109.69C86.4859 134.517 82.7439 163.207 96.7471 173.771C110.75 184.335 137.196 172.773 155.815 147.946Z" fill="#FFE840"/>
<path d="M131.54 165.78C121.697 171.48 112.442 172.996 105.48 170.047C98.519 167.097 94.6851 160.032 94.6851 150.144C94.6851 140.256 98.519 128.768 105.48 117.754C112.442 106.74 121.697 97.5364 131.54 91.8362C141.383 86.136 150.642 84.6393 157.603 87.573C164.565 90.5067 168.395 97.5881 168.395 107.476C168.395 117.364 164.561 128.852 157.603 139.866C150.646 150.88 141.387 160.079 131.54 165.78ZM131.54 93.8862C112.339 105.008 96.7131 129.712 96.7131 148.986C96.7131 168.26 112.339 174.859 131.54 163.746C150.741 152.632 166.367 127.92 166.367 108.65C166.367 89.3802 150.745 82.7684 131.54 93.8862Z" fill="#FF9D4D"/>
<path d="M136.699 122.566V128.203C136.583 128.259 136.464 128.322 136.342 128.394L133.258 130.165V124.915L134.993 123.908C135.622 123.545 136.197 123.093 136.699 122.566Z" fill="#D1975D"/>
<path d="M136.005 137.621C136.244 137.482 136.476 137.33 136.699 137.167V148.643L133.258 150.633V139.209L136.005 137.621Z" fill="#D1975D"/>
<path d="M145.324 123.398C144.183 122.562 142.634 122.42 140.676 122.972C142.221 121.425 143.462 119.601 144.335 117.595C145.118 115.888 145.544 114.039 145.589 112.161C145.606 111.185 145.417 110.216 145.034 109.319C144.725 108.522 144.165 107.849 143.439 107.401C142.714 106.953 141.862 106.756 141.013 106.839C139.866 106.943 138.76 107.319 137.787 107.938L136.699 108.563V102.99L133.258 104.98V110.553L129.075 112.977V107.404L125.63 109.395V114.967L119.486 118.526V152.855L125.63 149.272V155.044L129.075 153.054V147.282L136.005 143.269C136.239 143.13 136.469 142.995 136.699 142.851C137.959 142.072 139.153 141.192 140.271 140.22C141.567 139.102 142.745 137.853 143.788 136.494C144.762 135.229 145.563 133.838 146.169 132.359C146.736 130.991 147.032 129.525 147.038 128.044C147.035 125.793 146.464 124.245 145.324 123.398ZM137.957 114.709C138.68 115.062 139.041 115.899 139.041 117.22C139.032 118.599 138.618 119.945 137.85 121.089C137.516 121.621 137.128 122.116 136.691 122.566C136.189 123.093 135.614 123.544 134.985 123.908L129.067 127.339L126.126 129.039V120.393L135.274 115.095C135.711 114.829 136.19 114.643 136.691 114.545C137.12 114.463 137.563 114.521 137.957 114.709ZM140.001 132.601C139.775 133.287 139.468 133.943 139.089 134.556C138.699 135.186 138.239 135.768 137.715 136.291C137.4 136.609 137.06 136.902 136.699 137.167C136.476 137.33 136.244 137.482 136.005 137.621L126.134 143.337V134.305L129.075 132.601L136.342 128.394C136.466 128.322 136.585 128.259 136.699 128.203C137.083 128.004 137.5 127.88 137.93 127.837C138.365 127.789 138.804 127.881 139.184 128.099C139.556 128.337 139.849 128.68 140.025 129.087C140.248 129.587 140.355 130.131 140.339 130.679C140.33 131.334 140.216 131.983 140.001 132.601Z" fill="#FF9D4D"/>
<path d="M134.663 87.5969L134.326 88.1821L122.399 81.2757L123.09 80.8777L134.663 87.5969Z" fill="#FFE840"/>
<path d="M124.126 92.1467L123.788 92.7478L113.866 86.9998L114.45 86.554L124.126 92.1467Z" fill="#FFE840"/>
<path d="M116.792 98.5515L116.454 99.1367L106.512 93.3807L107.016 92.8911L116.792 98.5515Z" fill="#FFE840"/>
<path d="M109.453 104.956L109.116 105.542L100.071 100.311C100.222 100.136 100.368 99.9607 100.519 99.7896L109.453 104.956Z" fill="#FFE840"/>
<path d="M105.309 113.208L104.972 113.797L94.4229 107.687C94.5499 107.5 94.6808 107.313 94.8197 107.13L105.309 113.208Z" fill="#FFE840"/>
<path d="M102.646 122.375L102.309 122.961L89.5254 115.505C89.6325 115.306 89.7437 115.107 89.8588 114.916L102.646 122.375Z" fill="#FFE840"/>
<path d="M97.4432 129.958L97.1059 130.547L85.4097 123.78L85.6835 123.156L97.4432 129.958Z" fill="#FFE840"/>
<path d="M95.4627 139.468L95.1254 140.053L82.1948 132.554C82.2583 132.331 82.3258 132.108 82.3933 131.885L95.4627 139.468Z" fill="#FFE840"/>
<path d="M92.121 148.182L91.7837 148.771L80.147 142.032C80.1787 141.793 80.2105 141.55 80.2462 141.307L92.121 148.182Z" fill="#FFE840"/>
<path d="M92.6211 159.124L92.2837 159.713L79.9525 152.572C79.9207 152.298 79.893 152.019 79.8691 151.74L92.6211 159.124Z" fill="#FFE840"/>
<path d="M144.796 82.7962L144.458 83.3854L132.854 76.6621L133.743 76.3994L144.796 82.7962Z" fill="#FFE840"/>
<path d="M105.266 155.948L105.107 155.729C104.897 155.441 104.604 155.224 104.268 155.109C103.931 154.994 103.568 154.985 103.226 155.084C103.159 155.103 103.096 155.137 103.044 155.183C102.991 155.23 102.95 155.287 102.923 155.352C102.896 155.417 102.884 155.487 102.887 155.557C102.891 155.627 102.91 155.695 102.944 155.757L103.766 157.277C103.801 157.342 103.852 157.398 103.912 157.44L106.83 159.463C106.923 159.528 107.037 159.556 107.151 159.543C107.264 159.53 107.368 159.476 107.445 159.391L108.27 158.475C108.317 158.424 108.351 158.363 108.371 158.297C108.391 158.231 108.397 158.161 108.387 158.093C108.377 158.024 108.352 157.959 108.314 157.901C108.276 157.843 108.226 157.795 108.167 157.759L105.389 156.071C105.34 156.038 105.298 155.996 105.266 155.948Z" fill="#FFD0A6"/>
<path d="M134.262 112.854L135.112 110.386L137.6 103.165L141.172 106.596L142.684 113.049C142.866 113.833 142.807 114.654 142.515 115.404C142.222 116.154 141.71 116.797 141.045 117.248L137.076 119.155L134.262 112.854Z" fill="#FFD0A6"/>
<path d="M20.1419 123.693L66.6291 157.253C67.7698 158.077 68.7016 159.158 69.3494 160.409C69.9971 161.66 70.3426 163.046 70.3581 164.456C70.3735 165.865 70.0585 167.259 69.4383 168.524C68.8181 169.789 67.9102 170.89 66.7878 171.739L37.1246 194.177L28.3931 187.116C28.3931 187.116 46.6499 168.526 45.5029 167.79C44.852 167.392 31.1554 157.15 19.3084 148.285C17.3754 146.838 15.8202 144.944 14.7757 142.764C13.7313 140.583 13.2285 138.182 13.3104 135.764C13.3923 133.347 14.0564 130.985 15.246 128.881C16.4357 126.777 18.1154 124.993 20.1419 123.681V123.693Z" fill="url(#paint6_linear_70_1812)"/>
<path d="M42.3753 193.791L39.8233 196.522C39.1722 197.214 38.8095 198.13 38.8095 199.082C38.8095 200.033 39.1722 200.949 39.8233 201.641L43.2604 205.275C43.7461 205.788 44.0984 206.413 44.286 207.095C44.4736 207.777 44.4908 208.494 44.3359 209.184C44.1847 209.863 43.8718 210.495 43.4241 211.027C42.9764 211.558 42.4071 211.973 41.7649 212.236C41.1226 212.499 40.4265 212.602 39.7359 212.536C39.0454 212.471 38.3809 212.238 37.7992 211.859L35.8862 210.613C32.2916 208.274 29.3214 205.088 27.2341 201.335L21.4634 190.933C21.0262 190.148 20.779 189.27 20.7418 188.371C20.7045 187.472 20.8782 186.577 21.2488 185.757C21.6195 184.938 22.1767 184.217 22.8758 183.653C23.5748 183.089 24.3961 182.698 25.2735 182.51L37.3071 179.943L42.3753 193.791Z" fill="#281A10"/>
<path d="M67.4704 140.75L54.9129 200.399L36.4696 248.246L18.6772 240.428C21.5791 224.645 26.5461 209.316 33.4493 194.838L37.5372 133.063L37.5888 132.347L67.4704 140.75Z" fill="url(#paint7_linear_70_1812)"/>
<path d="M61.652 139.842L49.0707 199.491L31.1752 245.913L18.6772 240.428C21.5791 224.645 26.5461 209.316 33.4493 194.838L34.3066 132.156L61.652 139.842Z" fill="url(#paint8_linear_70_1812)"/>
<path d="M77.7418 63.8487C88.0609 69.537 92.4266 83.1745 88.7792 94.3918C82.5997 113.415 74.8128 143.118 65.9186 160.366C65.3152 161.549 64.3254 162.487 63.1146 163.026C61.9039 163.564 60.5456 163.669 59.2668 163.324L49.8209 160.76C35.9299 156.983 30.9887 146.43 19.7926 137.354C17.65 135.613 16.1307 133.22 15.4641 130.537C14.7975 127.853 15.0198 125.025 16.0976 122.479L32.4612 91.884L39.3273 54.1878C40.003 52.1547 41.1366 50.3049 42.64 48.782C44.1434 47.2591 45.9764 46.1039 47.9967 45.406C50.0171 44.7081 52.1706 44.4862 54.2902 44.7576C56.4098 45.029 58.4386 45.7864 60.2193 46.971L77.7418 63.8487Z" fill="url(#paint9_linear_70_1812)"/>
<path d="M91.4347 85.8574L99.1422 124.724L85.7989 118.622L134.017 111.703C134.924 111.574 135.848 111.771 136.626 112.258C137.403 112.745 137.985 113.492 138.267 114.366L138.335 114.573C138.68 115.646 138.595 116.812 138.099 117.824C137.603 118.836 136.734 119.614 135.675 119.995L94.5899 134.723C93.4239 135.485 92.0919 135.954 90.7068 136.089C89.3217 136.225 87.9244 136.023 86.6335 135.502C85.3427 134.98 84.1963 134.154 83.2917 133.093C82.387 132.033 81.7509 130.769 81.4371 129.409L81.2506 128.613L72.3524 89.9614C72.0608 88.6966 72.023 87.3863 72.2412 86.1067C72.4593 84.8271 72.9291 83.6038 73.6231 82.5081C74.3171 81.4123 75.2215 80.4659 76.2836 79.724C77.3458 78.9822 78.5445 78.4596 79.8099 78.1868C81.0761 77.9144 82.3836 77.8973 83.6564 78.1366C84.9293 78.3759 86.1419 78.8668 87.2237 79.5807C88.3056 80.2945 89.2351 81.2171 89.958 82.2947C90.6809 83.3723 91.1829 84.5834 91.4347 85.8574Z" fill="url(#paint10_linear_70_1812)"/>
<path d="M61.144 48.3323L65.9067 42.9266V30.8734C65.2353 27.4887 65.5955 23.9797 66.9405 20.8032C68.2855 17.6268 70.5529 14.9301 73.4475 13.0642C76.1534 11.3192 79.2916 10.367 82.5082 10.315C85.7248 10.263 88.892 11.1131 91.6526 12.7697L98.4275 16.8378C99.1007 17.2416 99.6864 17.7766 100.15 18.4113C100.614 19.0459 100.946 19.7673 101.127 20.5328C101.308 21.2984 101.334 22.0925 101.203 22.8683C101.073 23.6441 100.789 24.3859 100.368 25.0498L100.321 25.1254C99.5563 26.3223 99.0182 27.6501 98.7331 29.0423L97.4194 35.5227C97.36 37.9226 96.6892 40.2673 95.4707 42.3335L94.0498 44.7458C92.6921 46.5495 90.6782 47.7414 88.4475 48.0613C86.2169 48.3812 83.9506 47.8032 82.1433 46.4534L75.2454 62.0972L61.144 48.3323Z" fill="#FFD0A6"/>
<path d="M98.9197 28.2345L92.3512 30.794C91.0866 32.8248 90.2004 35.0691 89.7357 37.4177C89.0372 41.1754 80.528 43.4801 80.528 43.4801L74.8128 47.19C74.214 47.5779 73.5288 47.8111 72.8182 47.8688C72.1077 47.9264 71.394 47.8067 70.7408 47.5204L66.2282 45.5301C65.018 45.0018 63.981 44.1419 63.2361 43.0491C62.4913 41.9563 62.0688 40.675 62.0172 39.3522C61.9259 36.9042 61.9021 34.0939 62.18 32.7604C62.4578 31.4269 62.2276 28.3459 61.9339 25.7187C61.5356 22.295 62.3185 18.8377 64.1525 15.9225C65.2638 14.183 66.6092 12.4434 68.0261 11.4563C71.598 8.97635 73.3086 5.65256 80.2105 6.36508C87.1123 7.07761 97.4631 10.1427 99.5547 12.531C101.646 14.9194 100.94 15.7155 102.047 20.2972C103.154 24.8788 98.9197 28.2345 98.9197 28.2345Z" fill="#89603E"/>
<path d="M60.0527 47.6636L63.6882 45.4424L77.3093 57.3961L75.9163 62.8137L60.0527 47.6636Z" fill="url(#paint11_linear_70_1812)"/>
<path d="M88.3228 40.63L87.529 37.7918C87.2155 36.6534 85.7629 35.917 84.5524 36.2832C84.2278 36.3615 83.9379 36.5445 83.7271 36.8041C83.5163 37.0637 83.3963 37.3856 83.3856 37.7202L83.3657 44.5827L88.6641 44.1847L88.3228 40.63Z" fill="#FFD0A6"/>
<path d="M38.6925 242.474L36.4699 248.246C34.6958 250.2 32.9535 252.425 35.569 252.103L38.9862 254.973C39.4714 255.487 39.8233 256.112 40.0108 256.795C40.1984 257.477 40.2159 258.195 40.0617 258.886C39.4069 261.815 37.3748 261.975 37.3748 261.975L31.3064 263.997C30.66 264.208 29.9716 264.255 29.3027 264.134C28.6338 264.013 28.005 263.728 27.4725 263.304C24.7113 261.137 22.4082 258.44 20.6977 255.371L14.9151 244.97C14.4779 244.184 14.2307 243.306 14.1934 242.407C14.1562 241.508 14.3298 240.613 14.7005 239.794C15.0711 238.974 15.6284 238.254 16.3274 237.69C17.0265 237.126 17.8477 236.734 18.7252 236.547L20.7334 231.591L38.6925 242.474Z" fill="#281A10"/>
</g>
<defs>
<linearGradient id="paint0_linear_70_1812" x1="15.6094" y1="243.866" x2="270.588" y2="243.866" gradientUnits="userSpaceOnUse">
<stop stop-color="#2E256B"/>
<stop offset="1" stop-color="#5A3087"/>
</linearGradient>
<linearGradient id="paint1_linear_70_1812" x1="0" y1="165.573" x2="270.589" y2="165.573" gradientUnits="userSpaceOnUse">
<stop stop-color="#6A5EBF"/>
<stop offset="1" stop-color="#6E3AA5"/>
</linearGradient>
<linearGradient id="paint2_linear_70_1812" x1="192.97" y1="58.889" x2="287.976" y2="58.889" gradientUnits="userSpaceOnUse">
<stop stop-color="#2E256B"/>
<stop offset="1" stop-color="#5A3087"/>
</linearGradient>
<linearGradient id="paint3_linear_70_1812" x1="181.579" y1="30.6227" x2="288" y2="30.6227" gradientUnits="userSpaceOnUse">
<stop stop-color="#6A5EBF"/>
<stop offset="1" stop-color="#6E3AA5"/>
</linearGradient>
<linearGradient id="paint4_linear_70_1812" x1="181.579" y1="66.9974" x2="192.97" y2="66.9974" gradientUnits="userSpaceOnUse">
<stop stop-color="#6A5EBF"/>
<stop offset="1" stop-color="#6E3AA5"/>
</linearGradient>
<linearGradient id="paint5_linear_70_1812" x1="258.849" y1="72.7255" x2="270.557" y2="72.7255" gradientUnits="userSpaceOnUse">
<stop stop-color="#2E256B"/>
<stop offset="1" stop-color="#5A3087"/>
</linearGradient>
<linearGradient id="paint6_linear_70_1812" x1="13.2996" y1="158.937" x2="70.3598" y2="158.937" gradientUnits="userSpaceOnUse">
<stop stop-color="#2E256B"/>
<stop offset="1" stop-color="#5A3087"/>
</linearGradient>
<linearGradient id="paint7_linear_70_1812" x1="26.6858" y1="188.688" x2="59.3059" y2="193.729" gradientUnits="userSpaceOnUse">
<stop stop-color="#2E256B"/>
<stop offset="1" stop-color="#5A3087"/>
</linearGradient>
<linearGradient id="paint8_linear_70_1812" x1="25.6972" y1="187.939" x2="53.5632" y2="192.245" gradientUnits="userSpaceOnUse">
<stop stop-color="#6A5EBF"/>
<stop offset="1" stop-color="#6E3AA5"/>
</linearGradient>
<linearGradient id="paint9_linear_70_1812" x1="15.0815" y1="104.077" x2="90.0493" y2="104.077" gradientUnits="userSpaceOnUse">
<stop stop-color="#2E256B"/>
<stop offset="1" stop-color="#5A3087"/>
</linearGradient>
<linearGradient id="paint10_linear_70_1812" x1="72.0984" y1="107.046" x2="138.545" y2="107.046" gradientUnits="userSpaceOnUse">
<stop stop-color="#6A5EBF"/>
<stop offset="1" stop-color="#6E3AA5"/>
</linearGradient>
<linearGradient id="paint11_linear_70_1812" x1="60.0527" y1="54.128" x2="77.3093" y2="54.128" gradientUnits="userSpaceOnUse">
<stop stop-color="#6A5EBF"/>
<stop offset="1" stop-color="#6E3AA5"/>
</linearGradient>
<clipPath id="clip0_70_1812">
<rect width="288" height="306" fill="white"/>
</clipPath>
</defs>
</svg>
